<?xml version="1.0" encoding="utf-8"?>
<!-- Generator: Adobe Illustrator 19.0.0, SVG Export Plug-In . SVG Version: 6.00 Build 0)  -->
<svg version="1.1" id="Layer_1" xmlns="http://www.w3.org/2000/svg" xmlns:xlink="http://www.w3.org/1999/xlink" x="0px" y="0px"
	 viewBox="0 0 500 500" style="enable-background:new 0 0 500 500;" xml:space="preserve">
<style type="text/css">
	.st0{fill:#00AEEE;}
	.st1{fill:#8CC53D;}
	.st2{fill:#FFCA02;}
	.st3{fill:#FAA619;}
	.st4{fill:#F36E1E;}
</style>
<g id="XMLID_1_">
	<path id="XMLID_3_" class="st0" d="M195.7,316.5c-6-5.6-16.3-10.6-32.3-3.2c-7.9,3.8-24.5,21.5-13.8,49.1
		c-11.6-12.4-12.9-38.5,0.2-51.7C159.9,300.5,185,297,195.7,316.5"/>
	<path id="XMLID_4_" class="st1" d="M318.6,243.7c17.7-14.6,62.4-39.1,90.2-20.3c2.5,1.9,6.7,4.5,12.3,15.8c0,0-9.8-12.3-23.2-15.1
		c0,0,9.4,5.7,13.7,15.3c0,0-13.9-12.8-25.3-15.1c0,0,10.7,7,15.3,15.3c0,0-16.8-12.6-23.7-13.6c0,0,11.5,7.9,14.6,14.6
		c0,0-18.5-12.4-24.3-12.5c0,0,10,5.9,14,13.3c0,0-15.6-10.3-25.7-10.2c0,0,11,4.6,15.7,11.7c0,0-14.1-7.7-25.3-7.4
		c0,0,10.1,3.5,15.2,7.7c0,0-17.5-6.4-26.9-4.7c0,0,9.1,0.9,14.4,4.5C337.7,241,323.7,242.1,318.6,243.7"/>
	<path id="XMLID_5_" class="st1" d="M302.9,240.9c-14.7-8.1-53.5-43.6-88.1-25c-2.5,2-8.6,6.1-14.4,18.3c0,0,13-14.6,25.3-16.6
		c0,0-12.8,9-15.9,17.2c0,0,14.2-13.6,25.6-15.6c0,0-11.5,9.1-15.7,16.4c0,0,17.2-13.3,24-14.1c0,0-12.3,10.3-15,15.5
		c0,0,18.8-12.9,24.5-12.8c0,0-11.8,8.6-14.4,14.1c0,0,16-10.7,26-10.1c0,0-12.3,6.1-16.1,12.3c0,0,14.4-8.1,25.4-7.2
		c0,0-10.1,3.5-15.3,7.9c0,0,17.6-6.4,27-4.1c0,0-8.2,1.6-13.6,5.3C281.2,239.8,296.6,239.5,302.9,240.9"/>
	<path id="XMLID_6_" class="st1" d="M307.4,237.5c-6.5-19.6-26.8-64.8-60.1-63.6c-2.7,0.3-8.7,0.8-16.1,7.3c0,0,15.6-5.3,25.8-1.1
		c0,0-13.3,1.1-18.6,6c0,0,16-4,25.7-0.1c0,0-12.4,1.7-18.3,5.5c0,0,18.3-2.4,23.9,0.3c0,0-13.4,2.3-17.3,5.1c0,0,19.3-1.3,23.8,1.6
		c0,0-12.3,1.1-16.4,4.3c0,0,16.4-0.9,23.9,4.3c0,0-11.8-1.1-16.9,2.1c0,0,14.1,0.5,22.4,6.5c0,0-9.2-2.1-14.9-1.1
		c0,0,16.1,3.3,22.5,9.6c0,0-7.3-3.9-13-3.4C293.9,225.4,304.2,233.6,307.4,237.5"/>
	<path id="XMLID_7_" class="st1" d="M319.1,237.1c5.3-19.1,20.3-56.5,57.5-59.9c5.7,0,9.2-0.5,20.3,4.7c0,0-18-3.3-28.9,1.2
		c0,0,14.9-0.2,21.5,3.7c0,0-18.4-2.2-28.7,2c0,0,14,0.5,21.1,3.3c0,0-20.6-0.6-26.6,2.1c0,0,15.2,0.9,19.9,3c0,0-21.7,0.5-26.2,3.4
		c0,0,13.9,0,18.8,2.4c0,0-18.4,0.5-26.1,5.8c0,0,13-1.9,19.1,0.4c0,0-15.7,1.6-24.1,7.5c0,0,10-2.5,16.4-2.1c0,0-15.5,3.8-22,9
		c0,0,5.8-2.7,12.1-2.8C332.4,225.4,322.1,233.4,319.1,237.1"/>
	<path id="XMLID_8_" class="st1" d="M299.1,167c-5-2.5-10.3-3.6-18.4-2.4c0,0,14.6,2.4,21,10c0,0-9.7-3.4-15.9-1.4
		c0,0,14.3,3,20.5,10.1c0,0-10.4-3.5-16.7-2.6c0,0,15.5,5.3,19,9.8c0,0-11.5-3.4-15.7-2.5c0,0,15.9,6.6,18.3,10.8
		c0,0-10.3-3.9-14.7-2.9c0,0,13.3,5.8,17.4,13.3c0,0-9-5.6-14.3-5c0,0,9.6,4.4,14,12.8c0,0-5.1-3.8-10-5.2c6.8,6.4,9.6,14.6,11,22.9
		C321.8,217.4,321.3,179.9,299.1,167"/>
	<path id="XMLID_9_" class="st2" d="M178.4,233.8c-11.7-38.2,9.8-78.4,47.8-90.1c27.9-8.5,57,0.7,75.1,21.1
		c-18.3-14.4-43.4-16.6-67.3-9.3c-38.7,11.9-65,55.8-42,103.4C185.9,251.8,181.2,243.3,178.4,233.8"/>
	<path id="XMLID_10_" class="st3" d="M241,112.2c-0.8,0.3-0.5,7.3-0.4,8.8c0.1,0.8-0.2,2.7-0.7,5.4c-0.1,0.7-0.5,2.2-1,4.5
		c-0.2,1.6,0.2,2.6,0.5,3.1c0.8,1.2,3.1,3,4.1,2.3c1.9-1.1,2.1-5.1,1.9-7.6C245.1,125.4,241.5,112.2,241,112.2"/>
	<path id="XMLID_11_" class="st4" d="M217.2,116.5c-0.6,0.5,1.3,7.2,1.7,8.7c0.2,0.8,0.5,2.6,0.7,5.4c0,0.6,0.1,2.3,0.1,4.6
		c0.1,1.5,0.9,2.5,1.2,2.9c0.7,0.8,3.9,1.8,4.5,1.2c1.5-1.5,0.8-5.4,0-7.8C224.3,128.2,217.7,116.4,217.2,116.5"/>
	<path id="XMLID_12_" class="st3" d="M195.5,126.4c-0.5,0.7,3,6.8,3.7,8c0.5,0.7,1.2,2.5,2,5.1c0.2,0.6,0.7,2.2,1.3,4.5
		c0.3,1.1,1.2,2,1.8,2.6c0.9,0.7,4.2,0.6,4.6,0c1.2-1.6-0.5-5.4-1.8-7.5C205.1,136.1,195.8,126.2,195.5,126.4"/>
	<path id="XMLID_13_" class="st4" d="M176.4,141.1c-0.3,0.7,4.6,5.7,5.5,6.8c0.6,0.6,1.7,2.1,3.2,4.5c0.4,0.6,1.1,1.9,2.3,4
		c0.8,1.2,1.7,1.7,2.4,2c0.9,0.5,4.4-0.4,4.6-1.1c0.7-2-1.8-5.1-3.6-6.8C188.3,148.1,176.8,140.6,176.4,141.1"/>
	<path id="XMLID_14_" class="st3" d="M162,159.5c-0.1,0.8,5.8,4.5,7,5.3c0.7,0.4,2.1,1.7,4.1,3.6c0.5,0.5,1.5,1.6,3.2,3.2
		c0.9,0.9,1.9,1.3,2.8,1.4c1.3,0.1,4.1-1.5,4.2-2.1c0.1-2.1-3-4.4-5.2-5.7C175.1,163.5,162.2,159.1,162,159.5"/>
	<path id="XMLID_15_" class="st4" d="M154.3,181.2c0.1,0.7,6,2.7,7.3,3.1c0.7,0.2,2.2,1,4.4,2.3c0.6,0.3,1.7,1,3.6,2.3
		c1.3,0.6,2.3,0.7,2.7,0.6c1.2-0.1,3.4-2.3,3.3-2.8c-0.4-1.9-3.7-3.3-5.8-3.9C166.6,181.8,154.8,180.9,154.3,181.2"/>
	<path id="XMLID_16_" class="st3" d="M152.1,202.3c0.2,0.6,5.8,1.1,7,1.1c0.7,0.1,2.1,0.4,4.3,1c0.6,0.2,2,0.8,3.6,1.2
		c1.3,0.3,2,0.2,2.6-0.1c1.2-0.5,2.3-2.6,2.2-3.2c-0.7-1.6-3.9-2.1-5.9-2.1C163,200.1,152.5,201.8,152.1,202.3"/>
	<path id="XMLID_17_" class="st4" d="M154.2,221.4c0.3,0.5,5.3-0.4,6.3-0.6c0.6-0.1,1.9-0.1,4-0.1c0.5,0,1.6,0.1,3.3,0.3
		c1.4,0,1.9-0.4,2.2-0.6c0.9-0.8,1.5-2.7,1.3-3.3c-1-1.2-3.9-1-5.7-0.6C163.2,217.2,154.4,220.9,154.2,221.4"/>
	<path id="XMLID_18_" class="st4" d="M264.9,116.1c-0.7,0.1-2,6.3-2.3,7.6c-0.2,0.7-0.7,2.3-1.8,4.6c-0.2,0.5-0.8,1.9-1.8,3.7
		c-0.5,1.3-0.4,2-0.2,3c0.2,1.1,2,3,3,2.7c1.9-0.5,3-3.9,3.3-6.2C265.6,128.5,265.5,116.3,264.9,116.1"/>
	<path id="XMLID_19_" class="st3" d="M285.2,126.7c-0.6,0-2.8,4.6-3.2,5.6c-0.3,0.6-1.1,1.6-2.4,3.2c-0.4,0.4-1,1.3-2.2,2.6
		c-0.6,0.8-0.6,1.2-0.7,2.3c0,0.8,0.3,2.2,1.2,2.6c1.5,0.7,3.6-2.4,4.4-4.1C283.4,136.5,285.6,126.8,285.2,126.7"/>
	<path id="XMLID_20_" class="st4" d="M299.2,139.6c-0.5-0.1-2.9,2.8-3.4,3.4c-0.3,0.4-1.1,1.1-2.3,2c-0.3,0.2-1.1,0.7-2.1,1.5
		c-0.8,0.5-0.9,1.1-1,1.5c-0.2,0.6,0.4,2.3,0.9,2.5c1.1,0.2,2.7-1.3,3.6-2.4C296,146.6,299.5,139.9,299.2,139.6"/>
	<path id="XMLID_21_" class="st3" d="M309.9,152.7c-0.2-0.2-2.8,1.7-3.4,2.1c-0.3,0.2-1,0.6-2.2,1.1c-0.3,0.1-0.9,0.4-1.9,0.7
		c-0.8,0.3-1.1,0.9-1.1,0.9c-0.2,0.5-0.1,1.9,0.2,2.1c0.9,0.4,2.4-0.5,3.3-1.2C306.1,157.6,310.1,153,309.9,152.7"/>
	<path id="XMLID_22_" class="st0" d="M201,326.7c6.7,8,4.9,23.1-4.8,23.4c8.9-3.5,5.9-24.3-12.3-20.1c-14.6,4.1-22.8,35.9,10.1,41.4
		c8.8,1.4,22.2-0.4,35.1-3.6c37.4-9.2,59.9-12.7,94.2-3.5c6.9,2.1,16.6,5.7,20.9,8.7c-3.2-0.7-7-1.7-16.5-4.1
		c-39.4-9.8-69.6,4-87.9,10c-11.7,3.8-27.2,11.2-52.8,8.4c-9.6-2.4-17.7-6.1-25-15c-11.6-17.1-6.6-40,8-48.9
		C180.4,317.2,192.6,317.8,201,326.7"/>
	<path id="XMLID_23_" class="st4" d="M169,249.1c0.1,0.3,2.7-0.7,3.3-1c0.6-0.2,1.8-0.4,2.8-0.5c3.8-0.2,3.8-2.1,3.4-2.7
		c-0.6-0.7-2.3-0.5-3.4,0.1C173.8,245.7,169,248.8,169,249.1"/>
	<path id="XMLID_24_" class="st3" d="M160.1,235.6c0,0.4,3.8-0.4,4.8-0.5c0.8-0.2,2.4-0.1,3.9,0c5.5,0.4,5.3-2.6,5.2-2.8
		c-0.6-1.1-2.8-1.3-4.5-0.7C167.3,232.2,160.1,235.3,160.1,235.6"/>
	<path id="XMLID_27_" d="M108.7,268.9l4,0.1c0.9,0.1,1.3,0.5,1.4,1.6l0.2,0.9c0,0.6,0,0.8-0.4,1.5c-0.5,0.7-2.5,1-3.4,1.3h-1
		c-0.6,0-1.1,0.3-1.1,1l0,2.7v15.8c-0.3,0.8-0.9,1.4-1.8,1.5h-1.1c-0.6,0-0.5,0-0.7-0.1c-1.4-0.8-2.2-1.8-2.2-3.2l0-2.1v-1.3
		c-0.2-0.5-0.2-0.8-0.3-0.9l-0.2-6l0.2-6.8H97l-4.6,0.2l-8.7,0.8c-2,2.5-4.9,6.4-6.9,9.8c-2.4,3.9-3.1,5.7-5.9,8.1
		c-0.6,0.3-1.6,0.5-1.6,0.5c-0.6,0-1-0.2-1.4-0.5c-0.2-0.3-0.4-0.7-0.5-1.2l0.2-0.9c0.4-1.1,0.6-1.3,0.8-2.1l3.7-6.1l3.7-7.1
		l-2.2-0.3c-0.8-0.2-1.3-0.6-1.6-1.6l-0.1-0.7l0.1-0.9c0.2-0.8,0.7-1.5,1.4-2c0.8-0.5,2-0.8,3.4-1.1l3.9-0.4l5.8-8.2l6.1-8.3
		c4.3-5.7,8.7-11,13.3-15.8l1.1-0.5c0.5-0.1,1.1-0.2,1.9-0.2c1.2,0,1.8,0.6,1.8,1.6l-1,7.8c-0.2,1.3-0.3,2.6-0.4,3.9
		c-0.1,1.3-0.1,2.6-0.1,3.8L108.7,268.9z M88.5,268.8l13.6-0.4l0.7-17.5l-7.6,9.1c-0.9,1.2-2.1,2.6-3,3.9
		C91.3,265,89.5,267.2,88.5,268.8"/>
	<path id="XMLID_30_" d="M164.6,246.3c-0.3-1-0.7-1.7-1.1-2c-0.6-0.2-1.1-0.4-1.5-0.4c-0.7,0-1.3,0.3-1.7,0.8
		c-2.8,3.1-4.5,5.9-5.2,8.7c-0.6,2.7-1.8,6.5-3.3,11.3l-0.7-0.5l-1.3-0.8c-1.3-0.4-2.3-0.6-3.4-0.6l-0.8,0.1l-1.6,0.2l-3.3,0.9
		l-2.2,0.8c-3.4,1.8-6.6,3.7-9.5,5.9c-3.3,2.5-5.9,5.2-7.9,8.1c-1.3,1.5-2.1,3.5-2.1,3.5c-0.3,0.7-0.5,1.4-0.7,2.2
		c-0.2,0.6-0.3,1.4-0.3,2.2c0,1.3,0.4,2.6,1.2,3.9c0.9,1.2,1.9,2,2.8,2.5c1,0.5,2.1,0.7,3.5,0.7c2,0,4-0.4,6-1.2
		c1.9-0.8,3.8-1.8,5.7-3.2c2.9-2.1,5.7-4.5,8.5-7.1c0.5-0.6,1.1-1.1,1.7-1.7c0.2,0,0.3,0.1,0.5,0.3c-0.1,0.5-0.2,0.9-0.4,1.4v0
		c-0.2,0.6-0.4,1.3-0.4,1.8c-0.1,0.9-0.2,2.3-0.2,3.9l-0.1,1.3v1.1c0,2,0.4,3.5,1.2,4.3c0.6,0.5,1.4,0.7,2.4,0.5
		c1.3-0.5,2.1-1.4,2.1-2.7l0.2-1.9l0.4-2c0.3-2.1,0.6-4.2,0.9-6.3c0.8-4.1,1.7-8.2,2.9-11.9c1.3-4.1,2.5-7.7,3.7-10.7l2-5.3l2.3-5.3
		v-1.9L164.6,246.3z M149,270.4l-0.5,1.5c-1.2,2.7-3,5.1-5.1,7c-1.2,1.2-3.2,2.7-4.6,3.7h0c-0.8,0.6-1.7,1.2-2.5,1.7l-4,2.3
		c-1.4,0.8-2.6,1.3-3.8,1.5c-1.1,0.3-2,0.4-2.6,0.4c-0.8,0-1.2-0.1-1.4-0.4c-0.1-0.2-0.1-0.6-0.1-1.1c0-0.4,0.1-0.9,0.4-1.7
		c0.3-0.8,0.5-1.3,0.5-1.4c0.2-0.3,0.5-1,0.5-1c0.5-0.7,1.3-2.1,1.7-2.6l3.1-3.3c3-2.8,6.4-5,10.2-6.6l3.6-1.1
		c0.8-0.3,1.6-0.4,2.3-0.4l1.6,0.1C148.8,269.6,149.1,270,149,270.4"/>
	<path id="XMLID_31_" d="M203.5,266.5l-2.6,3.6l-2.5,3l-2.7,3.1l-2.9,3.1c-1.2,1.2-2.3,2.4-3.5,3.6c-1.2,1.1-2.5,2.3-4,3.5
		c-2.7,2.3-5.6,4.3-8.5,6.3c-0.8,0.5-1.8,0.9-3,1.2l-0.8,0.1c-0.9,0-1.7-0.3-2.3-0.8c-1.7-1.6-2.6-3.7-2.6-6.1v-5.2l0.1-1.9v-2.6
		l0.3-3.7l0.1-2.2c0-0.6,0.1-1.3,0.2-2.1c0.1-0.9,0.2-1.6,0.3-2.2c0.3-2.5,1.4-4.1,3.4-5.1c0.5-0.1,1.3-0.2,2.1-0.3l1.5,0.2
		c0.5,0.1,0.8,0.8,0.8,2.1l-0.6,5l-0.2,2c0,0.5-0.1,1.3-0.4,2.5l-0.4,3.5l-0.1,4.1v2.5l0.2,1.5c0.2,0.6,0.4,0.7,0.9,0.6
		c1.4-0.3,3.7-1.9,6.6-4.9l3.8-3.9l2.6-2.6l3.9-4.5l1.8-2.1l1.9-2.5l2.2-2.5c0.8-0.8,1.9-1.2,3.1-1.2c1,0.1,1.9,0.5,2.5,1.1l0.2,1.1
		c0,0.4-0.1,0.8-0.3,1.2L203.5,266.5z"/>
	<path id="XMLID_34_" d="M228.1,271.6l0.7-0.9l1.2-1.4c0.3-0.3,0.4-0.5,0.5-0.9c0-0.4-0.6-0.5-1.9-0.5l-2.2,0.7l-1.1,0.4l-0.9,0.4
		c-0.6,0.4-1.3,0.7-1.9,1.2c-0.7,0.4-1.3,0.9-2,1.5c-1.2,1-2.2,2.2-2.8,3.5c-0.2,0.5-0.2,0.7,0.2,0.8h1.1
		C222.3,275.4,225.3,273.8,228.1,271.6 M230.8,276.6c-2.6,2.1-5.6,3.8-8.7,5.1c-3,1.2-6,1.8-9.1,1.8c-0.8,0.6-1.2,1.3-1.2,2.2
		c0,0.5,0.1,0.9,0.3,1.3c0.4,0.6,0.8,1.2,1.4,1.5c0.6,0.4,1.4,0.5,2.3,0.5h1.5c0.3-0.1,0.7-0.1,0.9-0.1c0.4-0.1,0.6-0.1,0.8-0.1
		c0.3,0,0.7-0.2,1.3-0.4c1.6-0.5,3.1-0.9,4.5-1.4l1.7-0.8l2.2-0.8c1-0.1,1.6,0,2,0.5l0.1,0.7c0,0.6-0.4,1.2-1.1,1.7
		c-4.9,3.1-10,4.6-15.2,4.6h-1.3l-1.3-0.1c-1.3-0.1-2.7-0.6-4.1-1.4c-1.3-0.7-2.2-1.8-2.7-3.3l-0.5-1.5l-0.1-1.9
		c0-0.8,0.1-1.4,0.1-1.8c0-0.5,0.2-1.2,0.6-1.9c0.9-3.3,3.1-6.4,6.2-9.3c3.1-2.8,6.3-5.2,9.5-6.9l4-1.8l2.4-0.7l2-0.1
		c2,0,4,0.4,6,1.2c1.3,0.7,2,1.8,2,3.4l-0.3,1.9c-0.6,1.7-1.5,3.2-2.7,4.3l-1.9,1.9L230.8,276.6z"/>
	<path id="XMLID_35_" d="M255.9,273.3l0.9,0.1c1.8,0,3.8-0.8,5.9-2.3c1.3-1,3-1.5,4.9-1.5c1.3,0,2.6,0.1,3.9,0.6
		c1.4,0.4,2.7,1.1,4.1,2.3c1.1,0.9,1.9,2.2,2.3,3.6l0.5,3.4l0.6,4.7v2.6l0.1,2.3l-0.1,1.3c-0.1,0.7-0.7,1.2-1.9,1.3
		c-1.1,0.1-2-0.2-2.7-1c-0.6-0.8-0.8-1.7-1.1-2.9l-0.7-5.5c0-0.7-0.1-1.5-0.4-2.4l-0.7-2.3c-0.5-1.7-1.7-2.6-3.3-2.6
		c-0.8,0-1.4,0.1-2,0.4c-2.5,0.8-4.6,1.7-6.3,2.6c-2.8,1.7-4.9,3.6-6.4,5.6l-5.3,6.6c-0.7,0.9-1.6,1.3-2.6,1.3l-1.5-0.2
		c-1.2-0.2-1.7-0.8-1.7-1.9c0-0.4,0.1-0.8,0.3-1.5c1.8-4.1,3.3-8,4.6-11.6l1.9-5.5l1.9-6c0.1-0.9,1-1.6,2.7-1.9l1.6,0.2
		c0.4,0.1,0.8,0.7,1.1,1.8c0.1,0.6,0,1.4-0.3,2.5l-0.6,1.9l-0.5,1.7l-0.2,0.9C254.9,272.6,255.2,273,255.9,273.3"/>
	<path id="XMLID_36_" d="M359.7,274.2l-0.2,2.3v6.4l0.3,9c0,0.7-0.4,1.1-1.2,1.4l-0.9,0.3l-0.8-0.2c-0.6-0.3-1.1-0.7-1.5-1.1
		c-1.2-1.2-1.8-2.9-1.8-5l-0.1-3.1l-0.1-2.5l0.1-3.1l0.1-1.4c0-0.6,0.1-1.2,0.2-1.9c-0.2-0.4-0.3-0.6-0.6-0.6l-0.6,0.2
		c-3.2,2.7-6,5.2-8.5,7.7c-3.3,3.3-6,5.8-8.4,7.7c-1.8,1.5-3.8,2.3-5.9,2.3l-1.4-0.1l-1.5-0.4c-1.5-0.4-2.7-1.3-3.7-2.7
		c-0.5-0.6-0.9-1.2-1.2-1.9c-0.3-0.7-0.4-1.5-0.4-2.4c0-2,0.1-3.7,0.3-5c0.2-1.3,0.7-2.8,1.3-4.5c0.7-1.7,1.3-3.2,1.9-4.4
		c0.7-1.4,1.4-2.6,2.2-3.8c1-1.4,2.1-2.1,3.7-2.1l1.1,0.1c1.1,0.4,1.9,1.2,2.3,2.4c0.1,0.6,0.1,1.1-0.1,1.4l-0.7,1.3l-1.4,2.4
		l-1.7,3.1c-0.8,1.6-1.4,3.5-1.7,5.8c0,1.4,0.4,2.3,1.4,2.7c0.5,0.3,1.1,0.4,1.7,0.4l1.3-0.1c1.8-1.1,3.3-2.5,4.7-4.3
		c1.3-1.6,2.8-3.2,4.4-4.8c2.4-2.4,4.3-4.2,5.8-5.5c1.9-1.8,3.9-3.4,6.1-5.1c0.6-0.2,1.3-0.3,2-0.3c1.2,0,2.3,0.4,3.3,1.2
		c0.8,0.8,1.2,1.8,1.2,3l-0.1,1l-0.5,2.4L359.7,274.2z"/>
	<path id="XMLID_37_" d="M381.4,269.5c0.4,0.1,1.9-0.5,4.4-1.8c2.6-1.3,4.5-2.1,5.5-2.4l2.7-0.6l2.2-0.7l2.4-0.2l2.7,0.2
		c0.3,0.1,0.7,0.5,0.9,1l0.2,1.4c-0.2,0.8-0.5,1.4-1.1,1.8c-1.9,0.6-3.7,1.1-5.3,1.4c-1.5,0.2-3.2,0.9-5,2l-2.3,1.4l-2.3,1.4
		c-1.5,0.8-2.8,1.9-4,3.3l-2.6,3.1l-2.4,3.1c-1.5,2-3,4.1-4.3,6.4c-0.5,0.6-1.1,1-2,1.2l-2.3,0.2c-0.5,0.1-0.8,0-1-0.3l-0.5-0.9
		l-0.4-1.5l0.3-1.4l0.4-1.3l0.5-1.4l1.6-3.9l1.6-3.9c0.4-1.2,0.8-2.5,1.2-3.9c0.6-2,1.1-3.5,1.3-4.4c0.4-1.1,0.6-2.1,0.8-3.3
		c0-1.1,0.4-2.1,1.4-3.1c0.4-0.5,1.3-0.8,2.6-1l0.7-0.1c0.8,0,1.4,0.2,1.8,0.7c0.5,0.9,0.7,1.8,0.7,2.8l-0.2,1.2l-0.2,1.8
		L381.4,269.5z"/>
	<path id="XMLID_40_" d="M423.4,271.6l0.8-0.9l1.2-1.4c0.2-0.3,0.5-0.5,0.5-0.9c0-0.4-0.6-0.5-1.9-0.5l-2.1,0.7l-1.1,0.4l-0.9,0.4
		c-0.6,0.4-1.3,0.7-2,1.2c-0.6,0.4-1.2,0.9-1.9,1.5c-1.2,1-2.1,2.2-2.8,3.5c-0.2,0.5-0.1,0.7,0.3,0.8h1
		C417.6,275.4,420.5,273.8,423.4,271.6 M426,276.6c-2.6,2.1-5.6,3.8-8.7,5.1c-3,1.2-6,1.8-9.2,1.8c-0.7,0.6-1.1,1.3-1.1,2.2
		c0,0.5,0.1,0.9,0.2,1.3c0.4,0.6,0.8,1.2,1.4,1.5c0.6,0.4,1.4,0.5,2.3,0.5h1.5c0.3-0.1,0.6-0.1,0.9-0.1c0.4-0.1,0.7-0.1,0.9-0.1
		c0.3,0,0.7-0.2,1.2-0.4c1.7-0.5,3.1-0.9,4.5-1.4l1.8-0.8l2.1-0.8c0.9-0.1,1.7,0,2,0.5l0.1,0.7c0,0.6-0.4,1.2-1.2,1.7
		c-4.9,3.1-10,4.6-15.2,4.6h-1.3l-1.2-0.1c-1.4-0.1-2.8-0.6-4.2-1.4c-1.3-0.7-2.3-1.8-2.8-3.3l-0.6-1.5l-0.1-1.9
		c0-0.8,0-1.4,0.1-1.8c0.1-0.5,0.3-1.2,0.6-1.9c1.1-3.3,3.1-6.4,6.3-9.3c3.1-2.8,6.3-5.2,9.5-6.9l4-1.8l2.5-0.7l2-0.1
		c2,0,4,0.4,6,1.2c1.3,0.7,2,1.8,2,3.4l-0.2,1.9c-0.6,1.7-1.5,3.2-2.7,4.3l-1.9,1.9L426,276.6z"/>
	<path id="XMLID_41_" d="M323.1,261.7c-0.6-1.2-1.5-1.2-2.8-1.7c-1.3-0.5-2.7-0.8-4.1-0.8l-10.2-0.4c-0.5-0.1-0.9-0.1-1.4-0.1
		c1.2-2.1,2.2-4.3,2.2-4.3l0.9-1.5l1.2-1.7l1.2-1.8l1.4-1.7l1.4-2.2c0.9-1.4,1.6-2.3,2.1-2.8c0.7-0.9,1-2.1,0.9-3.5
		c-0.2-0.4-0.5-0.7-1.1-1.2c-0.5-0.2-1-0.3-1.6-0.3c-0.7,0-1.5,0.3-2.3,0.9c-0.8,0.6-1.6,1.3-2.5,2.3c-0.2,0.3-0.7,1-1.4,1.9
		c-1.4,1.8-2.8,3.9-4.2,6.2l-3.6,5.5l-2.1,3.9h-7.6c-1.4,0-2.8,0-4.2,0.1c-1.4,0-3,0.1-4.5,0.3c-0.7,0.1-1.4,0.3-2.1,0.6
		c-0.7,0.2-1.2,0.7-1.6,1.4c-0.1,0.4-0.2,0.8-0.1,1.1c0,0.3,0.2,0.7,0.5,1.2c0.3,0.5,0.7,0.1,1.3,0.8l0.6,0.2l0.6,0.3
		c0.5,0.2,1,0.2,1.8,0.2c4.1-0.5,8.2-0.9,12.2-1.2c-0.2,0.5-0.4,0.8-0.3,0.9c-1.5,3.2-2.9,6.6-4.1,10.2c-0.5,1.6-0.9,3-1.1,4.1
		c-0.1,1.2-0.2,2.5-0.2,4v1.1c0.1,0.3,0.1,0.8,0.1,1.5c1.2,4.5,3.9,6.7,8.2,6.7c3.1,0,6.2-1.1,9.2-3.3l3.4-2.6
		c1.2-0.9,2-2.1,2.4-3.4c0.1-0.5,0-1.1-0.2-1.4c-0.4-0.3-0.7-0.5-1-0.5c-0.4,0-0.7,0.2-1.3,0.7c-0.5,0.4-1.2,0.9-2,1.7
		c-0.9,0.7-1.8,1.4-2.8,2.1c-1.3,0.9-2.8,1.3-4.5,1.3l-1.5-0.2c-1.7-1-2.5-2.4-2.5-4.3l-0.1-1.4c0-0.8,0.1-1.7,0.2-2.6
		c0.2-0.9,0.3-1.8,0.5-2.6c0.6-1.9,1.3-3.9,2.2-6c1-2.2,1.8-3.7,2.4-4.5l0.6-1.1l0.5-0.8l0.1-0.1l5.3-0.1l8.5-0.1l6.4,0.1
		c0.2-0.1,0.5-0.4,0.7-0.6C323.3,262.3,323.2,262.1,323.1,261.7"/>
	<path id="XMLID_42_" d="M236.3,305.2c-4,7.9-7.7,15.9-11,24.1l-3.1,8.1l-3.1,8.3l-2.8,8.4c-0.3,0.2-0.7,0.4-1.2,0.6
		c-0.3,0.1-0.6,0-0.9-0.4c-1.3-1.4-1.1-2-1.1-4c0-1.9,0.2-3.8,0.8-5.7l3.2-10.7c0.9-3.5,2-6.9,3.3-10.1l4-11.1
		c0.7-1.8,1.4-3.6,2.1-5.4c0.8-1.8,1.7-3.7,2.6-5.6c0.4-0.9,1-1.8,1.8-2.4c0.6-0.8,1.4-1.3,2.5-1.4c0.6,0,1.1,0.1,1.5,0.3
		c0.4,0.1,0.8,0.6,1.2,1.3c0.8,1.2,0.8,3.4,0.8,3.4C236.9,303.5,236.7,304.3,236.3,305.2"/>
	<path id="XMLID_43_" d="M265.6,321.2c-0.6,0.5-1.4,1-2.3,1.2c-0.9,0.3-1.8,0.4-2.7,0.4l-1.2,0l-0.8-0.1l-1.2,0.1l-2.2,0.2l-4.8,1.1
		c-1.5,0.4-2.6,1.3-3.5,3c-0.1,0.3-0.2,0.8-0.4,1.4c0,0.6,0.2,1.2,0.6,1.7c0.6,0.8,1.4,1.5,2.5,2.1l2.8,1.6l2.9,1.5
		c0.9,0.5,1.5,1.3,2,2.4l0.1,1.4c0,1.4-0.6,2.6-1.8,3.6l-4.6,3.2c-2.5,1.3-5.1,2.1-7.8,2.9c-2.7,0.7-5.3,1-7.9,1l-1.1-0.1l-1.1-0.3
		c-0.7-0.2-1.2-0.7-1.4-1.5c0-0.5,0.5-1,1.6-1.5c2.7-0.3,5.3-0.7,7.9-1.4c2.5-0.8,4.7-2.2,6.5-4.2c0.2-0.3,0.4-0.6,0.5-1.1
		c0-0.7-0.6-1.4-1.8-2.3l-3.9-2.3c-1.8-0.5-3-1.8-3.7-3.7c-0.4-0.9-0.5-1.7-0.5-2.5c0-1,0.2-2,0.7-2.9c0.9-2.2,2.5-3.9,4.6-5.2
		c2.1-1.4,4.3-2.4,6.7-3l4.5-0.9l5.2-0.7c0.9,0,2,0.2,3,0.6c1.2,0.4,2.1,1.2,2.8,2.5L265.6,321.2z"/>
	<path id="XMLID_44_" d="M288.4,300.6l-8.8,20c-1.4,3.4-2.6,7.2-3.5,11.4c-0.8,4.1-1.2,8.5-1.2,13.1c0,1.3,0.2,2.2,0.8,2.6
		c0.4,0.4,0.9,0.7,1.6,0.7l0.8-0.1c0.7-0.3,1.4,0.1,2,1.1c0,0.5-0.1,0.9-0.2,1.2c0,0.3-0.2,0.7-0.6,1.2c-1.2,0.6-2.6,0.9-4.2,0.9
		c-1.4,0-2.8-0.4-3.9-1.3c-0.7-0.5-1.3-1.3-1.8-2.5l-0.3-1.5l-0.1-1.6l0.1-2.4l0.1-1.2c0-0.6,0-1,0.1-1.2c0.8-7.3,2.1-13.9,4-19.7
		c0.5-1.7,1.1-3.5,1.7-5.5c0.6-2,1.2-3.8,1.8-5.5c0.6-1.6,1.3-3.3,2-4.8c0.7-1.6,1.5-3.3,2.4-5.1l1.3-2.4c0.4-0.7,1.3-1.3,2.7-1.5
		c1.4-0.1,2.4,0.1,3,0.8c0.4,0.8,0.6,1.4,0.6,2.1L288.4,300.6z"/>
	<path id="XMLID_45_" d="M318.8,332.1c-0.4,0.6-0.9,0.9-1.5,1.1l-1.8,0.2c-0.7,0-1.3-0.4-1.9-1.1c-0.4-0.7-1-1.2-1.8-1.4l-1.5-0.2
		c-1.3,0-2.7,0.5-3.9,1.4l-2.3,1.9l-2.3,1.8l-2.8,3.1c-0.8,0.9-1.3,1.7-1.3,2.4c0,0.3,0.2,0.7,0.4,0.9c0.3,0.3,0.7,0.3,1.2,0.2
		l1.2-0.7c1.6-0.5,3.1-1.4,4.8-2.7l2.1-1.5l2.7-1.3l1.3-0.3c0.8,0,1.7,0.4,2.6,1.2l3.1,3c0.7,0.7,1.5,1.4,2.2,2
		c0.8,0.6,1.8,1.1,2.8,1.7l2.7,1.2l3.1,0.9c0.5,0.1,0.9,0.8,1.2,1.8l0.1,1.4c0,0.6,0,0.9-0.1,1.1c-0.2,0.3-0.5,0.6-0.8,0.6l-1,0
		h-0.7c-1.6,0-3-0.3-4.2-0.9c-1.7-0.7-3.4-1.8-5.2-2.9c-0.7-0.3-1.7-1.2-3.1-2.3c-1.3-1.2-2.4-1.8-3.3-1.8l-0.8-0.1
		c-2.3,0-4.7,1.1-7.1,3.3c-2.4,2.2-5,3.6-7.6,4.1c-1,0.2-1.8,0.3-2.7,0.3c-1.1,0-2.1-0.2-3.2-0.7c-0.6-0.4-0.9-1-0.9-1.8v-2
		c1.4-4.6,3.9-8.9,7.7-12.9c3.4-3.6,7.5-6.8,12-9.5c1-0.5,2.8-1.1,5.4-1.5l1.1-0.1c1.8,0,3.1,0.6,3.9,1.8c0.8,1.2,1.3,2.5,1.3,4.1
		C320,329.4,319.6,330.7,318.8,332.1"/>
	<path id="XMLID_46_" d="M348.7,331.5l0.8,0c1.8,0,3.8-0.7,6-2.3c1.3-1,2.9-1.5,4.9-1.5c1.3,0,2.6,0.2,4,0.6c1.3,0.4,2.7,1.2,4,2.3
		c1.2,1,1.9,2.2,2.3,3.7l0.5,3.4l0.7,4.7v2.5l0.1,2.3l-0.1,1.3c-0.1,0.8-0.8,1.2-1.9,1.4c-1.1,0.1-2-0.2-2.7-1.1
		c-0.5-0.8-0.9-1.7-1.1-2.9l-0.7-5.5c0-0.6-0.2-1.4-0.5-2.3l-0.7-2.3c-0.6-1.7-1.6-2.5-3.3-2.5c-0.7,0-1.4,0.1-2,0.3
		c-2.6,0.8-4.6,1.7-6.3,2.6c-2.7,1.7-4.9,3.6-6.4,5.6l-5.3,6.7c-0.7,0.9-1.6,1.4-2.7,1.4l-1.4-0.2c-1.2-0.3-1.8-0.9-1.8-1.9
		c0-0.3,0.1-0.8,0.4-1.5c1.8-4.1,3.3-8,4.6-11.6l1.9-5.5l1.9-6c0.1-0.9,1-1.6,2.7-1.9l1.6,0.1c0.5,0.1,0.8,0.8,1.1,1.8
		c0.1,0.5,0.1,1.4-0.2,2.5l-0.6,1.9l-0.5,1.6l-0.2,1C347.7,330.7,348.1,331.2,348.7,331.5"/>
	<path id="XMLID_49_" d="M425.4,304.6c-0.3-1.1-0.7-1.7-1.1-2c-0.5-0.3-1-0.4-1.5-0.4c-0.7,0-1.3,0.2-1.7,0.8
		c-2.8,3.1-4.5,5.9-5.2,8.7c-0.7,2.7-1.7,6.4-3.3,11.2l-0.7-0.5l-1.3-0.8c-1.2-0.4-2.3-0.6-3.3-0.6l-1,0l-1.5,0.2l-3.4,0.9l-2.2,0.8
		c-3.4,1.8-6.5,3.7-9.5,5.9c-3.2,2.5-5.8,5.1-7.9,8.1c-1.3,1.5-2.2,3.4-2.2,3.4c-0.2,0.7-0.5,1.5-0.6,2.3c-0.2,0.7-0.3,1.4-0.3,2.3
		c0,1.3,0.4,2.6,1.1,3.8c0.9,1.2,1.9,2,2.8,2.5c1,0.5,2.1,0.6,3.4,0.6c2.1,0,4.1-0.3,6-1.2c1.9-0.7,3.8-1.8,5.8-3.2
		c2.9-2.1,5.7-4.5,8.5-7.1h0h0c0.6-0.5,1.2-1.1,1.7-1.6c0.1,0,0.3,0.1,0.5,0.3c-0.1,0.5-0.3,0.9-0.4,1.3c-0.2,0.7-0.3,1.4-0.4,1.9
		c-0.1,0.9-0.2,2.2-0.2,3.8l-0.1,1.3v1.1c0,2,0.4,3.6,1.3,4.4c0.6,0.5,1.3,0.7,2.3,0.6c1.4-0.6,2.1-1.5,2.1-3l0.2-1.9l0.5-1.9
		c0.3-2.1,0.6-4.3,1-6.4c0.7-4.1,1.7-8.1,2.8-11.9c1.3-4.1,2.5-7.7,3.7-10.7l2-5.3l2.3-5.3v-1.9L425.4,304.6z M409.9,328.7l-0.4,1.5
		c-1.4,2.7-3.1,5.1-5.2,7.1c-1.2,1.1-3.2,2.6-4.6,3.7c-0.8,0.6-1.7,1.2-2.5,1.7l-4,2.3c-1.4,0.7-2.7,1.3-3.8,1.5
		c-1.1,0.2-2,0.4-2.6,0.4c-0.7,0-1.2-0.1-1.3-0.4c-0.1-0.3-0.1-0.6-0.1-1.1c0-0.3,0.1-0.9,0.4-1.7c0.3-0.8,0.5-1.2,0.5-1.4
		c0.2-0.4,0.6-1.1,0.6-1.1c0.4-0.7,1.2-2,1.7-2.5l3.1-3.2c3-2.8,6.4-5,10.2-6.7l3.6-1.1c0.8-0.2,1.6-0.4,2.3-0.4l1.7,0.1
		C409.7,327.9,410,328.3,409.9,328.7"/>
	<path id="XMLID_54_" d="M420.7,348c1.7,0,3.1,1.4,3.1,3.1s-1.4,3.1-3.1,3.1c-1.7,0-3.1-1.4-3.1-3.1S419.1,348,420.7,348
		 M420.7,353.8c1.5,0,2.6-1.2,2.6-2.7s-1.2-2.7-2.6-2.7c-1.5,0-2.7,1.3-2.7,2.7C418,352.5,419.2,353.8,420.7,353.8 M420.3,351.1
		h-0.2v1.8h-0.6v-3.7h1.4c0.6,0,1.1,0.4,1.1,0.9c0,0.7-0.7,1.1-1.1,1.1l1.4,1.8h-0.6L420.3,351.1z M420.4,350.9
		c0.6,0,1.1-0.2,1.1-0.8c0-0.4-0.3-0.6-0.8-0.6h-0.6v1.4L420.4,350.9z"/>
</g>
</svg>
