<svg width="127" height="96" viewBox="0 0 127 96" fill="none" xmlns="http://www.w3.org/2000/svg">
<path d="M44.6536 71.1047C42.5654 69.1557 38.9805 67.4155 33.4119 69.991C30.6624 71.3135 24.8849 77.4738 28.6089 87.0797C24.5717 82.764 24.1192 73.6802 28.6785 69.0861C32.1938 65.536 40.9296 64.3179 44.6536 71.1047Z" fill="#00AEEE"/>
<path d="M87.4278 45.7673C93.5881 40.6859 109.146 32.159 118.821 38.7021C119.691 39.3634 121.153 40.2683 123.102 44.2012C123.102 44.2012 119.691 39.9203 115.027 38.9457C115.027 38.9457 118.299 40.9296 119.796 44.2708C119.796 44.2708 114.958 39.8159 110.99 39.0154C110.99 39.0154 114.714 41.4516 116.315 44.3404C116.315 44.3404 110.468 39.9551 108.067 39.607C108.067 39.607 112.069 42.3565 113.148 44.6884C113.148 44.6884 106.709 40.3727 104.691 40.3379C104.691 40.3379 108.171 42.3913 109.563 44.9668C109.563 44.9668 104.134 41.382 100.619 41.4168C100.619 41.4168 104.447 43.0178 106.083 45.4889C106.083 45.4889 101.175 42.809 97.2773 42.9134C97.2773 42.9134 100.793 44.1316 102.568 45.5933C102.568 45.5933 96.4769 43.3659 93.2053 43.9575C93.2053 43.9575 96.3724 44.2708 98.2171 45.5237C94.0754 44.8276 89.2028 45.2105 87.4278 45.7673Z" fill="#8CC53D"/>
<path d="M81.9636 44.7928C76.8474 41.9737 63.3434 29.6183 51.3012 36.0918C50.4311 36.7879 48.308 38.2149 46.2894 42.4609C46.2894 42.4609 50.8139 37.3796 55.0948 36.6835C55.0948 36.6835 50.6399 39.8158 49.561 42.6698C49.561 42.6698 54.5032 37.9364 58.4708 37.2403C58.4708 37.2403 54.4684 40.4075 53.0066 42.9482C53.0066 42.9482 58.9929 38.3193 61.3596 38.0408C61.3596 38.0408 57.0787 41.6257 56.139 43.4355C56.139 43.4355 62.6821 38.9457 64.6659 38.9805C64.6659 38.9805 60.5591 41.9737 59.6542 43.8879C59.6542 43.8879 65.2228 40.1639 68.7032 40.3727C68.7032 40.3727 64.4223 42.4958 63.0998 44.6536C63.0998 44.6536 68.1116 41.8345 71.94 42.1477C71.94 42.1477 68.4248 43.3659 66.615 44.8972C66.615 44.8972 72.7405 42.6698 76.0121 43.4703C76.0121 43.4703 73.1581 44.0271 71.2787 45.3149C74.4111 44.41 79.7709 44.3056 81.9636 44.7928Z" fill="#8CC53D"/>
<path d="M83.5297 43.6095C81.2675 36.7879 74.2022 21.0565 62.6125 21.4741C61.6728 21.5785 59.5845 21.7525 57.009 24.0148C57.009 24.0148 62.4385 22.1702 65.9885 23.632C65.9885 23.632 61.3596 24.0148 59.5149 25.7202C59.5149 25.7202 65.0836 24.328 68.4596 25.6854C68.4596 25.6854 64.1439 26.2771 62.0904 27.5996C62.0904 27.5996 68.4596 26.7643 70.4086 27.704C70.4086 27.704 65.7449 28.5045 64.3875 29.479C64.3875 29.479 71.1047 29.0266 72.6709 30.0359C72.6709 30.0359 68.39 30.4187 66.963 31.5325C66.963 31.5325 72.6709 31.2192 75.2812 33.0291C75.2812 33.0291 71.1743 32.6462 69.3993 33.7599C69.3993 33.7599 74.3067 33.934 77.1954 36.0222C77.1954 36.0222 73.9934 35.2913 72.0096 35.6394C72.0096 35.6394 77.613 36.7879 79.8405 38.9805C79.8405 38.9805 77.2998 37.6232 75.316 37.7972C78.8312 39.3982 82.416 42.2521 83.5297 43.6095Z" fill="#8CC53D"/>
<path d="M87.6018 43.4703C89.4464 36.8227 94.6671 23.806 107.614 22.6226C109.598 22.6226 110.816 22.4486 114.679 24.2584C114.679 24.2584 108.415 23.1099 104.621 24.6761C104.621 24.6761 109.807 24.6065 112.104 25.9638C112.104 25.9638 105.7 25.1981 102.115 26.6599C102.115 26.6599 106.988 26.8339 109.459 27.8084C109.459 27.8084 102.289 27.5996 100.201 28.5393C100.201 28.5393 105.491 28.8526 107.127 29.5835C107.127 29.5835 99.5744 29.7575 98.0082 30.7668C98.0082 30.7668 102.846 30.7668 104.551 31.6021C104.551 31.6021 98.1475 31.7761 95.4675 33.6207C95.4675 33.6207 99.9921 32.9594 102.115 33.7599C102.115 33.7599 96.6509 34.3168 93.7273 36.3702C93.7273 36.3702 97.2078 35.5001 99.4352 35.6394C99.4352 35.6394 94.0406 36.9619 91.7783 38.7717C91.7783 38.7717 93.797 37.832 95.9896 37.7972C92.2308 39.3982 88.646 42.1825 87.6018 43.4703Z" fill="#8CC53D"/>
<path d="M80.641 19.0726C78.9008 18.2025 77.0562 17.8197 74.2371 18.2373C74.2371 18.2373 79.3185 19.0726 81.5459 21.7177C81.5459 21.7177 78.1699 20.5344 76.0121 21.2305C76.0121 21.2305 80.989 22.2746 83.1469 24.7457C83.1469 24.7457 79.5273 23.5275 77.3346 23.8408C77.3346 23.8408 82.7293 25.6854 83.9474 27.2516C83.9474 27.2516 79.9449 26.0682 78.4832 26.3815C78.4832 26.3815 84.017 28.6785 84.8523 30.1403C84.8523 30.1403 81.2675 28.783 79.7361 29.131C79.7361 29.131 84.365 31.1496 85.792 33.7599C85.792 33.7599 82.6596 31.8109 80.815 32.0197C80.815 32.0197 84.1562 33.5511 85.6876 36.4747C85.6876 36.4747 83.9126 35.1521 82.2072 34.6648C84.5739 36.8923 85.5484 39.7462 86.0356 42.635C88.5415 36.6139 88.3675 23.5624 80.641 19.0726Z" fill="#8CC53D"/>
<path d="M38.6325 42.3217C34.5604 29.0266 42.0433 15.0354 55.2688 10.9633C64.9792 8.00493 75.1072 11.2069 81.4067 18.3069C75.0375 13.2952 66.3017 12.5295 57.9836 15.0702C44.5144 19.2118 35.3609 34.4908 43.3659 51.0576C41.2428 48.5865 39.607 45.6281 38.6325 42.3217Z" fill="#FFCA02"/>
<path d="M60.4199 0C60.1414 0.104412 60.2458 2.5407 60.2806 3.06276C60.3154 3.34119 60.211 4.00247 60.037 4.94218C60.0022 5.1858 59.863 5.70786 59.689 6.50835C59.6194 7.06522 59.7586 7.41326 59.863 7.58728C60.1414 8.00493 60.9419 8.6314 61.29 8.38778C61.9512 8.00493 62.0208 6.61277 61.9512 5.74267C61.8468 4.59413 60.5939 0 60.4199 0Z" fill="#FAA619"/>
<path d="M52.1365 1.49658C51.9277 1.6706 52.5889 4.00247 52.7281 4.52453C52.7978 4.80296 52.9022 5.42944 52.9718 6.40395C52.9718 6.61278 53.0066 7.20444 53.0066 8.00494C53.0414 8.527 53.3198 8.87504 53.4242 9.01426C53.6679 9.29269 54.7816 9.64073 54.9904 9.43191C55.5125 8.90984 55.2688 7.55248 54.9904 6.71719C54.6076 5.56865 52.3105 1.46177 52.1365 1.49658Z" fill="#F36E1E"/>
<path d="M44.584 4.94218C44.41 5.18581 45.6281 7.30885 45.8717 7.7265C46.0458 7.97013 46.2894 8.59661 46.5678 9.50151C46.6374 9.71034 46.8115 10.2672 47.0203 11.0677C47.1247 11.4505 47.4379 11.7638 47.6467 11.9726C47.96 12.2162 49.1085 12.1814 49.2477 11.9726C49.6654 11.4157 49.0737 10.0932 48.6213 9.3623C47.9252 8.31818 44.6884 4.87257 44.584 4.94218Z" fill="#FAA619"/>
<path d="M37.9364 10.0584C37.832 10.302 39.5374 12.0422 39.8506 12.425C40.0595 12.6339 40.4423 13.1559 40.9644 13.9912C41.1036 14.2001 41.3472 14.6525 41.7649 15.3834C42.0433 15.801 42.3565 15.9751 42.6002 16.0795C42.9134 16.2535 44.1315 15.9403 44.2012 15.6966C44.4448 15.0006 43.5747 13.9216 42.9482 13.33C42.0781 12.4947 38.0756 9.88436 37.9364 10.0584Z" fill="#F36E1E"/>
<path d="M32.9246 16.4623C32.8898 16.7408 34.9433 18.0285 35.3609 18.3069C35.6046 18.4462 36.0918 18.8986 36.7879 19.5599C36.9619 19.7339 37.31 20.1168 37.9016 20.6736C38.2149 20.9869 38.5629 21.1261 38.8761 21.1609C39.3286 21.1957 40.3031 20.6388 40.3379 20.43C40.3727 19.6991 39.2938 18.8986 38.5281 18.4462C37.484 17.8545 32.9942 16.3231 32.9246 16.4623Z" fill="#FAA619"/>
<path d="M30.2447 24.0148C30.2795 24.2584 32.333 24.9545 32.7854 25.0937C33.0291 25.1633 33.5511 25.4418 34.3168 25.8942C34.5256 25.9986 34.9085 26.2423 35.5698 26.6947C36.0222 26.9035 36.3702 26.9383 36.5095 26.9035C36.9271 26.8687 37.6928 26.103 37.658 25.929C37.5188 25.2677 36.3702 24.7805 35.6394 24.5717C34.5256 24.2236 30.4187 23.9104 30.2447 24.0148Z" fill="#F36E1E"/>
<path d="M29.479 31.3585C29.5486 31.5673 31.4977 31.7413 31.9153 31.7413C32.1589 31.7761 32.6462 31.8805 33.4119 32.0893C33.6207 32.159 34.108 32.3678 34.6648 32.507C35.1173 32.6114 35.3609 32.5766 35.5697 32.4722C35.9874 32.2982 36.3702 31.5673 36.3354 31.3585C36.0918 30.8016 34.9781 30.6276 34.282 30.6276C33.2727 30.5928 29.6183 31.1844 29.479 31.3585Z" fill="#FAA619"/>
<path d="M30.2099 38.006C30.3143 38.18 32.0545 37.8668 32.4026 37.7972C32.6114 37.7624 33.0639 37.7624 33.7947 37.7624C33.9688 37.7624 34.3516 37.7972 34.9433 37.8668C35.4305 37.8668 35.6046 37.7276 35.709 37.658C36.0222 37.3796 36.231 36.7183 36.1614 36.5095C35.8134 36.0918 34.8041 36.1614 34.1776 36.3006C33.3423 36.5443 30.2795 37.832 30.2099 38.006Z" fill="#F36E1E"/>
<path d="M68.738 1.35736C68.4944 1.39216 68.0419 3.55001 67.9375 4.00247C67.8679 4.24609 67.6939 4.80296 67.3111 5.60345C67.2414 5.77747 67.0326 6.26473 66.6846 6.8912C66.5106 7.34366 66.5454 7.58728 66.615 7.93533C66.6846 8.31817 67.3111 8.97945 67.6591 8.87503C68.3204 8.70101 68.7032 7.51768 68.8076 6.71718C68.9817 5.67306 68.9468 1.42697 68.738 1.35736Z" fill="#F36E1E"/>
<path d="M75.8032 5.04659C75.5944 5.04659 74.8287 6.64758 74.6895 6.99562C74.5851 7.20444 74.3067 7.55248 73.8542 8.10935C73.715 8.24857 73.5062 8.5618 73.0885 9.01426C72.8797 9.29269 72.8797 9.4319 72.8449 9.81475C72.8449 10.0932 72.9493 10.5804 73.2625 10.7197C73.7846 10.9633 74.5155 9.88436 74.7939 9.29269C75.1768 8.45739 75.9425 5.08139 75.8032 5.04659Z" fill="#FAA619"/>
<path d="M80.6758 9.53632C80.5018 9.50151 79.6665 10.5108 79.4925 10.7197C79.3881 10.8589 79.1096 11.1025 78.692 11.4157C78.5876 11.4853 78.3091 11.6594 77.9611 11.9378C77.6827 12.1118 77.6479 12.3206 77.6131 12.4599C77.5434 12.6687 77.7523 13.2604 77.9263 13.33C78.3091 13.3996 78.866 12.8775 79.1792 12.4947C79.5621 11.9726 80.7802 9.64073 80.6758 9.53632Z" fill="#F36E1E"/>
<path d="M84.3998 14.0956C84.3302 14.026 83.4253 14.6873 83.2165 14.8265C83.1121 14.8961 82.8685 15.0354 82.4508 15.2094C82.3464 15.2442 82.1376 15.3486 81.7895 15.453C81.5111 15.5574 81.4067 15.7662 81.4067 15.7662C81.3371 15.9403 81.3719 16.4275 81.4763 16.4971C81.7896 16.6363 82.3116 16.3231 82.6248 16.0795C83.0773 15.801 84.4695 14.2001 84.3998 14.0956Z" fill="#FAA619"/>
<path d="M46.4982 74.6547C48.8301 77.439 48.2036 82.6944 44.8276 82.7989C47.9252 81.5807 46.8811 74.3415 40.5467 75.8032C35.4653 77.2302 32.6114 88.2979 44.0619 90.2121C47.1247 90.6994 51.7884 90.0729 56.2782 88.9592C69.2949 85.7572 77.1258 84.5391 89.0636 87.741C91.4651 88.4719 94.8411 89.7249 96.3376 90.769C95.2239 90.5254 93.9014 90.1773 90.595 89.342C76.8822 85.9312 66.3713 90.7342 60.0022 92.8224C55.9301 94.145 50.5355 96.7205 41.6256 95.746C38.2845 94.9107 35.4653 93.6229 32.9246 90.5254C28.8874 84.5739 30.6276 76.6037 35.709 73.5062C39.3286 71.3483 43.5747 71.5572 46.4982 74.6547Z" fill="#00AEEE"/>
<path d="M35.3609 47.6468C35.3957 47.7512 36.3006 47.4031 36.5095 47.2987C36.7183 47.2291 37.1359 47.1595 37.484 47.1247C38.8065 47.0551 38.8065 46.3938 38.6673 46.185C38.4585 45.9414 37.8668 46.011 37.484 46.2198C37.0315 46.4634 35.3609 47.5423 35.3609 47.6468Z" fill="#F36E1E"/>
<path d="M32.2634 42.9482C32.2634 43.0874 33.5859 42.809 33.934 42.7742C34.2124 42.7046 34.7693 42.7394 35.2913 42.7742C37.2055 42.9134 37.1359 41.8693 37.1011 41.7997C36.8923 41.4168 36.1266 41.3472 35.5349 41.5561C34.7693 41.7649 32.2634 42.8438 32.2634 42.9482Z" fill="#FAA619"/>
<path d="M14.3741 54.538L15.7662 54.5728C16.0795 54.6076 16.2187 54.7468 16.2535 55.1296L16.3231 55.4429C16.3231 55.6517 16.3231 55.7213 16.1839 55.9649C16.0099 56.2086 15.3138 56.313 15.0005 56.4174H14.6525C14.4437 56.4174 14.2697 56.5218 14.2697 56.7654V57.7051V63.2042C14.1653 63.4826 13.9564 63.6914 13.6432 63.7262H13.2603C13.0515 63.7262 13.0863 63.7262 13.0167 63.6914C12.5295 63.413 12.251 63.065 12.251 62.5777V61.8468V61.3944C12.1814 61.2203 12.1814 61.1159 12.1466 61.0811L12.077 58.9929L12.1466 56.6262H10.302L8.70102 56.6958L5.67306 56.9742C4.97698 57.8443 3.96766 59.2017 3.27158 60.385C2.43628 61.7424 2.19266 62.3689 1.21814 63.2042C1.00932 63.3086 0.661278 63.3782 0.661278 63.3782C0.452453 63.3782 0.313237 63.3086 0.17402 63.2042C0.104412 63.0998 0.0348041 62.9605 0 62.7865L0.0696071 62.4733C0.208823 62.0904 0.278432 62.0208 0.348041 61.7424L1.63579 59.6194L2.92354 57.1483L2.15785 57.0439C1.87942 56.9742 1.7054 56.835 1.60099 56.487L1.56618 56.2434L1.60099 55.9301C1.67059 55.6517 1.84462 55.4081 2.08824 55.234C2.36668 55.06 2.78433 54.9556 3.27158 54.8512L4.62894 54.712L6.64758 51.8581L8.77062 48.9693C10.2672 46.9855 11.7986 45.1409 13.3996 43.4703L13.7824 43.2963C13.9564 43.2615 14.1653 43.2266 14.4437 43.2266C14.8613 43.2266 15.0702 43.4355 15.0702 43.7835L14.7221 46.4982C14.6525 46.9507 14.6177 47.4031 14.5829 47.8556C14.5481 48.308 14.5481 48.7605 14.5481 49.1781L14.3741 54.538ZM7.34366 54.5032L12.077 54.3639L12.3206 48.2732L9.67553 51.4404C9.36229 51.8581 8.94464 52.3453 8.63141 52.7978C8.31817 53.1806 7.6917 53.9463 7.34366 54.5032Z" fill="black"/>
<path d="M33.8295 46.6722C33.7251 46.3242 33.5859 46.0806 33.4467 45.9762C33.2379 45.9066 33.0639 45.8369 32.9246 45.8369C32.681 45.8369 32.4722 45.9414 32.333 46.1154C31.3585 47.1943 30.7668 48.1688 30.5232 49.1433C30.3143 50.083 29.8967 51.4056 29.3746 53.0762L29.131 52.9022L28.6785 52.6237C28.2261 52.4845 27.8781 52.4149 27.4952 52.4149L27.2168 52.4497L26.6599 52.5193L25.5114 52.8326L24.7457 53.111C23.5623 53.7375 22.4486 54.3988 21.4393 55.1644C20.2908 56.0345 19.3859 56.9742 18.6898 57.9836C18.2373 58.5056 17.9589 59.2017 17.9589 59.2017C17.8545 59.4453 17.7849 59.689 17.7153 59.9674C17.6457 60.1762 17.6109 60.4547 17.6109 60.7331C17.6109 61.1855 17.7501 61.638 18.0285 62.0905C18.3417 62.5081 18.6898 62.7865 19.003 62.9606C19.3511 63.1346 19.7339 63.2042 20.2212 63.2042C20.9172 63.2042 21.6133 63.065 22.3094 62.7865C22.9707 62.5081 23.632 62.1601 24.2932 61.6728C25.3026 60.9419 26.2771 60.1066 27.2516 59.2017C27.4256 58.9929 27.6344 58.8189 27.8432 58.61C27.9129 58.61 27.9477 58.6448 28.0173 58.7145C27.9825 58.8885 27.9477 59.0277 27.8781 59.2017C27.8084 59.4105 27.7388 59.6542 27.7388 59.8282C27.704 60.1414 27.6692 60.6287 27.6692 61.1855L27.6344 61.638V62.0208C27.6344 62.7169 27.7736 63.239 28.0521 63.5174C28.2609 63.6914 28.5393 63.761 28.8874 63.6914C29.3398 63.5174 29.6183 63.2042 29.6183 62.7517L29.6879 62.0905L29.8271 61.3944C29.9315 60.6635 30.0359 59.9326 30.1403 59.2017C30.4187 57.7747 30.732 56.3478 31.1496 55.06C31.6021 53.6331 32.0197 52.3801 32.4374 51.336L33.1335 49.4914L33.934 47.6468V46.9855L33.8295 46.6722ZM28.4001 55.06L28.2261 55.5821C27.8084 56.5218 27.182 57.3571 26.4511 58.0184C26.0334 58.436 25.3374 58.9581 24.8501 59.3061C24.5717 59.5149 24.2584 59.7238 23.98 59.8978L22.5878 60.6983C22.1006 60.9767 21.6829 61.1507 21.2653 61.2203C20.8824 61.3248 20.5692 61.3596 20.3604 61.3596C20.0819 61.3596 19.9427 61.3248 19.8731 61.2203C19.8383 61.1507 19.8383 61.0115 19.8383 60.8375C19.8383 60.6983 19.8731 60.5243 19.9775 60.2458C20.0819 59.9674 20.1516 59.7934 20.1516 59.7586C20.2212 59.6542 20.3256 59.4105 20.3256 59.4105C20.4996 59.1669 20.778 58.6796 20.9172 58.5056L21.9962 57.3571C23.0403 56.3826 24.2236 55.6169 25.5462 55.06L26.7991 54.6772C27.0776 54.5728 27.356 54.538 27.5996 54.538L28.1565 54.5728C28.3305 54.7816 28.4349 54.9208 28.4001 55.06Z" fill="black"/>
<path d="M47.3683 53.7027L46.4634 54.9556L45.5933 55.9997L44.6536 57.0787L43.6443 58.1576C43.2266 58.5752 42.8438 58.9929 42.4261 59.4105C42.0085 59.7934 41.556 60.211 41.034 60.6287C40.0943 61.4292 39.085 62.1253 38.0756 62.8213C37.7972 62.9954 37.4492 63.1346 37.0315 63.239L36.7531 63.2738C36.4398 63.2738 36.1614 63.1694 35.9526 62.9954C35.3609 62.4385 35.0477 61.7076 35.0477 60.8723V59.0625L35.0825 58.4012V57.4963L35.1869 56.2086L35.2217 55.4429C35.2217 55.234 35.2565 54.9904 35.2913 54.712C35.3261 54.3987 35.3609 54.1551 35.3957 53.9463C35.5001 53.0762 35.883 52.5193 36.5791 52.1713C36.7531 52.1365 37.0315 52.1017 37.3099 52.0669L37.832 52.1365C38.006 52.1713 38.1104 52.4149 38.1104 52.8674L37.9016 54.6076L37.832 55.3037C37.832 55.4777 37.7972 55.7561 37.6928 56.1738L37.5536 57.3919L37.5188 58.8189V59.689L37.5884 60.211C37.658 60.4199 37.7276 60.4546 37.9016 60.4198C38.3889 60.3154 39.1894 59.7586 40.1987 58.7144L41.5212 57.3571L42.4261 56.4522L43.7835 54.886L44.41 54.1551L45.0712 53.285L45.8369 52.4149C46.1154 52.1365 46.4982 51.9973 46.9159 51.9973C47.2639 52.0321 47.5771 52.1713 47.786 52.3801L47.8556 52.763C47.8556 52.9022 47.8208 53.0414 47.7512 53.1806L47.3683 53.7027Z" fill="black"/>
<path d="M55.9301 55.4777L56.1738 55.1644L56.5914 54.6772C56.6958 54.5728 56.7306 54.5032 56.7654 54.3639C56.7654 54.2247 56.5566 54.1899 56.1041 54.1899L55.3385 54.4336L54.9556 54.5728L54.6424 54.712C54.4336 54.8512 54.1899 54.9556 53.9811 55.1296C53.7375 55.2688 53.5286 55.4429 53.285 55.6517C52.8674 55.9997 52.5193 56.4174 52.3105 56.8698C52.2409 57.0439 52.2409 57.1135 52.3801 57.1483H52.763C53.9115 56.8002 54.9556 56.2434 55.9301 55.4777ZM56.8698 57.2179C55.9649 57.9488 54.9208 58.5404 53.8419 58.9929C52.7978 59.4105 51.7536 59.6194 50.6747 59.6194C50.3963 59.8282 50.2571 60.0718 50.2571 60.385C50.2571 60.5591 50.2919 60.6983 50.3615 60.8375C50.5007 61.0463 50.6399 61.2551 50.8487 61.3596C51.0576 61.4988 51.336 61.5336 51.6492 61.5336H52.1713C52.2757 61.4988 52.4149 61.4988 52.4845 61.4988C52.6237 61.464 52.6933 61.464 52.763 61.464C52.8674 61.464 53.0066 61.3944 53.2154 61.3248C53.7723 61.1507 54.2943 61.0115 54.7816 60.8375L55.3733 60.5591L56.139 60.2806C56.487 60.2458 56.6958 60.2806 56.835 60.4546L56.8698 60.6983C56.8698 60.9071 56.7306 61.1159 56.487 61.2899C54.7816 62.3689 53.0066 62.8909 51.1968 62.8909H50.7443L50.2919 62.8561C49.8394 62.8213 49.3522 62.6473 48.8649 62.3689C48.4125 62.1252 48.0992 61.7424 47.9252 61.2203L47.7512 60.6983L47.7164 60.037C47.7164 59.7586 47.7512 59.5497 47.7512 59.4105C47.7512 59.2365 47.8208 58.9929 47.96 58.7493C48.2732 57.6007 49.0389 56.5218 50.1178 55.5125C51.1968 54.538 52.3105 53.7027 53.4242 53.111L54.8164 52.4845L55.6517 52.2409L56.3478 52.2061C57.0439 52.2061 57.7399 52.3453 58.436 52.6237C58.8885 52.8674 59.1321 53.2502 59.1321 53.8071L59.0277 54.4684C58.8189 55.06 58.5056 55.5821 58.088 55.9649L57.4267 56.6262L56.8698 57.2179Z" fill="black"/>
<path d="M65.6057 56.0693L65.9189 56.1041C66.5454 56.1041 67.2415 55.8257 67.9723 55.3037C68.4248 54.9556 69.0165 54.7816 69.6777 54.7816C70.1302 54.7816 70.5826 54.8164 71.0351 54.9904C71.5223 55.1296 71.9748 55.3733 72.4621 55.7909C72.8449 56.1041 73.1233 56.5566 73.2626 57.0439L73.4366 58.2272L73.6454 59.863V60.7679L73.6802 61.5684L73.6454 62.0208C73.6106 62.2645 73.4018 62.4385 72.9841 62.4733C72.6013 62.5081 72.288 62.4037 72.0444 62.1252C71.8356 61.8468 71.766 61.5336 71.6616 61.1159L71.4179 59.2017C71.4179 58.9581 71.3831 58.6796 71.2787 58.3664L71.0351 57.5659C70.8611 56.9742 70.4434 56.661 69.8866 56.661C69.6081 56.661 69.3993 56.6958 69.1905 56.8002C68.3204 57.0787 67.5895 57.3919 66.9978 57.7051C66.0233 58.2968 65.2924 58.9581 64.7704 59.6542L62.9257 61.9512C62.6821 62.2645 62.3689 62.4037 62.0208 62.4037L61.4988 62.3341C61.0811 62.2645 60.9071 62.0556 60.9071 61.6728C60.9071 61.5336 60.9419 61.3944 61.0115 61.1507C61.638 59.7238 62.1601 58.3664 62.6125 57.1135L63.2738 55.1992L63.9351 53.111C63.9699 52.7978 64.2831 52.5541 64.8748 52.4497L65.4316 52.5193C65.5709 52.5541 65.7101 52.763 65.8145 53.1458C65.8493 53.3546 65.8145 53.6331 65.7101 54.0159L65.5012 54.6772L65.3272 55.2688L65.2576 55.5821C65.2576 55.8257 65.362 55.9649 65.6057 56.0693Z" fill="black"/>
<path d="M101.732 56.3826L101.663 57.1831V59.4105L101.767 62.5429C101.767 62.7865 101.628 62.9257 101.349 63.0301L101.036 63.1346L100.758 63.065C100.549 62.9605 100.375 62.8213 100.236 62.6821C99.818 62.2645 99.6092 61.6728 99.6092 60.9419L99.5744 59.863L99.5396 58.9929L99.5744 57.914L99.6092 57.4267C99.6092 57.2179 99.644 57.009 99.6788 56.7654C99.6092 56.6262 99.5744 56.5566 99.47 56.5566L99.2612 56.6262C98.1475 57.5659 97.1729 58.436 96.3028 59.3061C95.1543 60.4547 94.2146 61.3248 93.3793 61.986C92.7528 62.5081 92.0567 62.7865 91.3259 62.7865L90.8386 62.7517L90.3165 62.6125C89.7945 62.4733 89.3768 62.1601 89.0288 61.6728C88.8548 61.464 88.7156 61.2551 88.6111 61.0115C88.5067 60.7679 88.4719 60.4895 88.4719 60.1762C88.4719 59.4801 88.5067 58.8885 88.5763 58.436C88.6459 57.9836 88.82 57.4615 89.0288 56.8698C89.2724 56.2782 89.4812 55.7561 89.6901 55.3385C89.9337 54.8512 90.1773 54.4335 90.4558 54.0159C90.8038 53.5286 91.1866 53.285 91.7435 53.285L92.1264 53.3198C92.5092 53.459 92.7876 53.7375 92.9268 54.1551C92.9616 54.3639 92.9616 54.538 92.892 54.6424L92.6484 55.0948L92.1612 55.9301L91.5695 57.0091C91.2911 57.5659 91.0822 58.2272 90.9778 59.0277C90.9778 59.5149 91.117 59.8282 91.4651 59.9674C91.6391 60.0718 91.8479 60.1066 92.0567 60.1066L92.5092 60.0718C93.1357 59.689 93.6577 59.2017 94.145 58.5752C94.5974 58.0184 95.1195 57.4615 95.6764 56.9046C96.5117 56.0693 97.1729 55.4429 97.695 54.9904C98.3563 54.3639 99.0524 53.8071 99.818 53.2154C100.027 53.1458 100.271 53.111 100.514 53.111C100.932 53.111 101.315 53.2502 101.663 53.5286C101.941 53.8071 102.08 54.1551 102.08 54.5728L102.046 54.9208L101.871 55.7561L101.732 56.3826Z" fill="black"/>
<path d="M109.285 54.7468C109.424 54.7816 109.946 54.5728 110.816 54.1203C111.721 53.6679 112.382 53.3894 112.73 53.285L113.67 53.0762L114.436 52.8326L115.271 52.763L116.211 52.8326C116.315 52.8674 116.454 53.0066 116.524 53.1806L116.594 53.6679C116.524 53.9463 116.42 54.1551 116.211 54.2943C115.549 54.5032 114.923 54.6772 114.366 54.7816C113.844 54.8512 113.252 55.0948 112.626 55.4777L111.825 55.9649L111.025 56.4522C110.503 56.7306 110.05 57.1135 109.633 57.6007L108.728 58.6796L107.893 59.7586C107.371 60.4547 106.848 61.1855 106.396 61.986C106.222 62.1949 106.013 62.3341 105.7 62.4037L104.899 62.4733C104.725 62.5081 104.621 62.4733 104.551 62.3689L104.377 62.0556L104.238 61.5336L104.343 61.0463L104.482 60.5939L104.656 60.1066L105.213 58.7493L105.77 57.3919C105.909 56.9742 106.048 56.5218 106.187 56.0345C106.396 55.3385 106.57 54.8164 106.64 54.5032C106.779 54.1203 106.848 53.7723 106.918 53.3546C106.918 52.9718 107.057 52.6237 107.405 52.2757C107.545 52.1017 107.858 51.9973 108.31 51.9277L108.554 51.8928C108.832 51.8928 109.041 51.9625 109.18 52.1365C109.354 52.4497 109.424 52.763 109.424 53.111L109.354 53.5286L109.285 54.1551V54.7468Z" fill="black"/>
<path d="M123.902 55.4777L124.181 55.1644L124.599 54.6772C124.668 54.5728 124.773 54.5032 124.773 54.3639C124.773 54.2247 124.564 54.1899 124.111 54.1899L123.38 54.4336L122.998 54.5728L122.684 54.712C122.475 54.8512 122.232 54.9556 121.988 55.1296C121.779 55.2688 121.571 55.4429 121.327 55.6517C120.909 55.9997 120.596 56.4174 120.352 56.8698C120.283 57.0439 120.318 57.1135 120.457 57.1483H120.805C121.884 56.8002 122.893 56.2434 123.902 55.4777ZM124.807 57.2179C123.902 57.9488 122.858 58.5404 121.779 58.9929C120.735 59.4105 119.691 59.6194 118.577 59.6194C118.334 59.8282 118.195 60.0718 118.195 60.385C118.195 60.5591 118.229 60.6983 118.264 60.8375C118.403 61.0463 118.543 61.2551 118.751 61.3596C118.96 61.4988 119.239 61.5336 119.552 61.5336H120.074C120.178 61.4988 120.283 61.4988 120.387 61.4988C120.526 61.464 120.631 61.464 120.7 61.464C120.805 61.464 120.944 61.3944 121.118 61.3248C121.71 61.1507 122.197 61.0115 122.684 60.8375L123.311 60.5591L124.042 60.2806C124.355 60.2458 124.633 60.2806 124.738 60.4546L124.773 60.6983C124.773 60.9071 124.633 61.1159 124.355 61.2899C122.65 62.3689 120.874 62.8909 119.065 62.8909H118.612L118.195 62.8561C117.707 62.8213 117.22 62.6473 116.733 62.3689C116.28 62.1252 115.932 61.7424 115.758 61.2203L115.549 60.6983L115.515 60.037C115.515 59.7586 115.515 59.5497 115.549 59.4105C115.584 59.2365 115.654 58.9929 115.758 58.7493C116.141 57.6007 116.837 56.5218 117.951 55.5125C119.03 54.538 120.144 53.7027 121.257 53.111L122.649 52.4845L123.52 52.2409L124.216 52.2061C124.912 52.2061 125.608 52.3453 126.304 52.6237C126.756 52.8674 127 53.2502 127 53.8071L126.93 54.4684C126.722 55.06 126.408 55.5821 125.991 55.9649L125.329 56.6262L124.807 57.2179Z" fill="black"/>
<path d="M88.994 52.0321C88.7852 51.6144 88.4719 51.6144 88.0195 51.4404C87.567 51.2664 87.0798 51.162 86.5925 51.162L83.0425 51.0227C82.8685 50.9879 82.7293 50.988 82.5552 50.988C82.9729 50.2571 83.3209 49.4914 83.3209 49.4914L83.6342 48.9693L84.0518 48.3776L84.4695 47.7512L84.9567 47.1595L85.444 46.3938C85.7572 45.9066 86.0008 45.5933 86.1749 45.4193C86.4185 45.1061 86.5229 44.6884 86.4881 44.2012C86.4185 44.0619 86.3141 43.9575 86.1053 43.7835C85.9312 43.7139 85.7572 43.6791 85.5484 43.6791C85.3048 43.6791 85.0263 43.7835 84.7479 43.9923C84.4695 44.2012 84.191 44.4448 83.8778 44.7928C83.8082 44.8972 83.6342 45.1409 83.3905 45.4541C82.9033 46.0806 82.416 46.8115 81.9288 47.612L80.6758 49.5262L79.9449 50.8835H77.2998C76.8126 50.8835 76.3253 50.8835 75.8381 50.9183C75.3508 50.9183 74.7939 50.9531 74.2719 51.0227C74.0282 51.0576 73.7846 51.1272 73.541 51.2316C73.2974 51.3012 73.1233 51.4752 72.9841 51.7188C72.9493 51.858 72.9145 51.9973 72.9493 52.1017C72.9493 52.2061 73.0189 52.3453 73.1233 52.5193C73.2278 52.6934 73.367 52.5541 73.5758 52.7978L73.7846 52.8674L73.9934 52.9718C74.1675 53.0414 74.3415 53.0414 74.6199 53.0414C76.0469 52.8674 77.4738 52.7282 78.866 52.6237C78.7964 52.7978 78.7268 52.9022 78.7616 52.937C78.2395 54.0507 77.7523 55.234 77.3346 56.487C77.1606 57.0439 77.0214 57.5311 76.9518 57.914C76.917 58.3316 76.8822 58.7841 76.8822 59.3061V59.689C76.917 59.7934 76.917 59.9674 76.917 60.211C77.3346 61.7772 78.2743 62.5429 79.7709 62.5429C80.8498 62.5429 81.9288 62.1601 82.9729 61.3944L84.1562 60.4895C84.5739 60.1762 84.8523 59.7586 84.9915 59.3061C85.0263 59.1321 84.9915 58.9233 84.9219 58.8189C84.7827 58.7145 84.6783 58.6448 84.5739 58.6448C84.4347 58.6448 84.3303 58.7144 84.1214 58.8885C83.9474 59.0277 83.7038 59.2017 83.4253 59.4801C83.1121 59.7238 82.7989 59.9674 82.4508 60.211C81.9984 60.5243 81.4763 60.6635 80.8846 60.6635L80.3626 60.5939C79.7709 60.2458 79.4925 59.7586 79.4925 59.0973L79.4577 58.61C79.4577 58.3316 79.4925 58.0184 79.5273 57.7051C79.5969 57.3919 79.6317 57.0787 79.7013 56.8002C79.9101 56.1389 80.1538 55.4429 80.467 54.712C80.815 53.9463 81.0935 53.4242 81.3023 53.1458L81.5111 52.763L81.6851 52.4845L81.7199 52.4497L83.5646 52.4149L86.5229 52.3801L88.7504 52.4149C88.82 52.3801 88.9244 52.2757 88.994 52.2061C89.0636 52.2409 89.0288 52.1713 88.994 52.0321Z" fill="black"/>
<path d="M58.784 67.1718C57.3919 69.9214 56.1041 72.7057 54.9556 75.5596L53.8767 78.3787L52.7978 81.2675L51.8232 84.191C51.7188 84.2606 51.5796 84.3302 51.4056 84.3998C51.3012 84.4347 51.1968 84.3998 51.0924 84.2606C50.6399 83.7734 50.7095 83.5645 50.7095 82.8685C50.7095 82.2072 50.7791 81.5459 50.9879 80.8846L52.1017 77.1606C52.4149 75.9425 52.7978 74.7591 53.2502 73.6454L54.6424 69.7821C54.886 69.1557 55.1296 68.5292 55.3733 67.9027C55.6517 67.2762 55.9649 66.615 56.2782 65.9537C56.4174 65.6405 56.6262 65.3272 56.9046 65.1184C57.1135 64.84 57.3919 64.6659 57.7747 64.6311C57.9836 64.6311 58.1576 64.6659 58.2968 64.7356C58.436 64.7704 58.5752 64.9444 58.7144 65.188C58.9929 65.6056 58.9929 66.3713 58.9929 66.3713C58.9929 66.5802 58.9233 66.8586 58.784 67.1718Z" fill="black"/>
<path d="M68.9816 72.7405C68.7728 72.9145 68.4944 73.0885 68.1811 73.1581C67.8679 73.2625 67.5547 73.2973 67.2414 73.2973H66.8238L66.5454 73.2625L66.1277 73.2973L65.362 73.367L63.6914 73.7498C63.1694 73.889 62.7865 74.2023 62.4733 74.7939C62.4385 74.8983 62.4037 75.0724 62.3341 75.2812C62.3341 75.49 62.4037 75.6988 62.5429 75.8729C62.7517 76.1513 63.0301 76.3949 63.413 76.6037L64.3875 77.1606L65.3968 77.6827C65.7101 77.8567 65.9189 78.1351 66.0929 78.518L66.1277 79.0052C66.1277 79.4925 65.9189 79.9101 65.5012 80.2582L63.9002 81.3719C63.0301 81.8243 62.1252 82.1028 61.1855 82.3812C60.2458 82.6248 59.3409 82.7292 58.436 82.7292L58.0532 82.6944L57.6703 82.59C57.4267 82.5204 57.2527 82.3464 57.1831 82.068C57.1831 81.894 57.3571 81.7199 57.7399 81.5459C58.6796 81.4415 59.5845 81.3023 60.4894 81.0587C61.3595 80.7802 62.1252 80.293 62.7517 79.5969C62.8213 79.4925 62.8909 79.3881 62.9257 79.214C62.9257 78.9704 62.7169 78.7268 62.2993 78.4135L60.9419 77.6131C60.3154 77.439 59.8978 76.9866 59.6542 76.3253C59.5149 76.0121 59.4801 75.7336 59.4801 75.4552C59.4801 75.1072 59.5497 74.7591 59.7238 74.4459C60.037 73.6802 60.5939 73.0885 61.3247 72.6361C62.0556 72.1488 62.8213 71.8008 63.6566 71.5919L65.2228 71.2787L67.0326 71.0351C67.3458 71.0351 67.7287 71.1047 68.0767 71.2439C68.4944 71.3831 68.8076 71.6616 69.0512 72.114L68.9816 72.7405Z" fill="black"/>
<path d="M76.917 65.5709L73.8542 72.5317C73.367 73.715 72.9493 75.0376 72.6361 76.4993C72.3576 77.9263 72.2184 79.4577 72.2184 81.0587C72.2184 81.5111 72.288 81.8244 72.4969 81.9636C72.6361 82.1028 72.8101 82.2072 73.0537 82.2072L73.3321 82.1724C73.5758 82.068 73.8194 82.2072 74.0282 82.5552C74.0282 82.7293 73.9934 82.8685 73.9586 82.9729C73.9586 83.0773 73.889 83.2165 73.7498 83.3905C73.3321 83.5993 72.8449 83.7038 72.288 83.7038C71.8008 83.7038 71.3135 83.5645 70.9307 83.2513C70.687 83.0773 70.4782 82.7989 70.3042 82.3812L70.1998 81.8591L70.165 81.3023L70.1998 80.467L70.2346 80.0493C70.2346 79.8405 70.2346 79.7013 70.2694 79.6317C70.5478 77.091 71.0003 74.7939 71.6615 72.7753C71.8356 72.1836 72.0444 71.5571 72.2532 70.8611C72.462 70.165 72.6709 69.5385 72.8797 68.9468C73.0885 68.39 73.3321 67.7983 73.5758 67.2763C73.8194 66.7194 74.0978 66.1277 74.4111 65.5012L74.8635 64.6659C75.0027 64.4223 75.316 64.2135 75.8032 64.1439C76.2905 64.1091 76.6385 64.1787 76.8474 64.4223C76.9866 64.7007 77.0562 64.9096 77.0562 65.1532L76.917 65.5709Z" fill="black"/>
<path d="M87.4974 76.5341C87.3582 76.743 87.1842 76.8474 86.9753 76.917L86.3489 76.9866C86.1052 76.9866 85.8964 76.8474 85.6876 76.6037C85.5484 76.3601 85.3395 76.1861 85.0611 76.1165L84.5391 76.0469C84.0866 76.0469 83.5993 76.2209 83.1817 76.5341L82.3812 77.1954L81.5807 77.8219L80.6062 78.9008C80.3278 79.214 80.1538 79.4925 80.1538 79.7361C80.1538 79.8405 80.2234 79.9797 80.293 80.0493C80.3974 80.1538 80.5366 80.1538 80.7106 80.1189L81.1283 79.8753C81.6851 79.7013 82.2072 79.3881 82.7989 78.9356L83.5297 78.4136L84.4695 77.9611L84.9219 77.8567C85.2003 77.8567 85.5136 77.9959 85.8268 78.2743L86.9057 79.3185C87.1494 79.5621 87.4278 79.8057 87.6714 80.0145C87.9499 80.2234 88.2979 80.3974 88.6459 80.6062L89.5856 81.0239L90.6646 81.3371C90.8386 81.3719 90.9778 81.6155 91.0822 81.9636L91.117 82.4508C91.117 82.6596 91.117 82.7641 91.0822 82.8337C91.0126 82.9381 90.9082 83.0425 90.8038 83.0425H90.4557H90.2121C89.6553 83.0425 89.168 82.9381 88.7503 82.7293C88.1587 82.4856 87.567 82.1028 86.9405 81.7199C86.6969 81.6155 86.3489 81.3023 85.8616 80.9194C85.4092 80.5018 85.0263 80.293 84.7131 80.293L84.4346 80.2582C83.6342 80.2582 82.7989 80.641 81.9636 81.4067C81.1283 82.1724 80.2234 82.6597 79.3184 82.8337C78.9704 82.9033 78.692 82.9381 78.3787 82.9381C77.9959 82.9381 77.6479 82.8685 77.265 82.6944C77.0562 82.5552 76.9518 82.3464 76.9518 82.068V81.3719C77.439 79.7709 78.3091 78.2743 79.6317 76.8822C80.815 75.6292 82.242 74.5155 83.8082 73.5758C84.1562 73.4018 84.7827 73.1929 85.6876 73.0537L86.0704 73.0189C86.6969 73.0189 87.1494 73.2277 87.4278 73.6454C87.7062 74.063 87.8802 74.5155 87.8802 75.0724C87.9151 75.5944 87.7758 76.0469 87.4974 76.5341Z" fill="black"/>
<path d="M97.9038 76.3253H98.1822C98.8087 76.3253 99.5048 76.0817 100.27 75.5248C100.723 75.1768 101.28 75.0028 101.976 75.0028C102.428 75.0028 102.881 75.0724 103.368 75.2116C103.82 75.3508 104.308 75.6292 104.76 76.0121C105.178 76.3601 105.421 76.7777 105.561 77.2998L105.735 78.4832L105.978 80.1189V80.989L106.013 81.7895L105.978 82.242C105.944 82.5204 105.7 82.6596 105.317 82.7292C104.934 82.764 104.621 82.6596 104.377 82.3464C104.203 82.068 104.064 81.7547 103.995 81.3371L103.751 79.4229C103.751 79.214 103.681 78.9356 103.577 78.6224L103.333 77.8219C103.124 77.2302 102.776 76.9518 102.185 76.9518C101.941 76.9518 101.697 76.9866 101.489 77.0562C100.584 77.3346 99.8877 77.6479 99.296 77.9611C98.3563 78.5528 97.5906 79.214 97.0685 79.9101L95.2239 82.242C94.9803 82.5552 94.667 82.7292 94.2842 82.7292L93.7969 82.6596C93.3793 82.5552 93.1705 82.3464 93.1705 81.9984C93.1705 81.8939 93.2053 81.7199 93.3097 81.4763C93.9362 80.0493 94.4582 78.692 94.9107 77.439L95.5719 75.5248L96.2332 73.4366C96.268 73.1233 96.5813 72.8797 97.1729 72.7753L97.7298 72.8101C97.9038 72.8449 98.0082 73.0885 98.1126 73.4366C98.1474 73.6106 98.1474 73.9238 98.043 74.3067L97.8342 74.9679L97.6602 75.5248L97.5906 75.8729C97.5558 76.0469 97.695 76.2209 97.9038 76.3253Z" fill="black"/>
<path d="M124.599 66.963C124.494 66.5802 124.355 66.3713 124.216 66.2669C124.042 66.1625 123.868 66.1277 123.694 66.1277C123.45 66.1277 123.241 66.1973 123.102 66.4061C122.127 67.4851 121.536 68.4596 121.292 69.4341C121.049 70.3738 120.7 71.6616 120.144 73.3321L119.9 73.1581L119.448 72.8797C119.03 72.7405 118.647 72.6709 118.299 72.6709H117.951L117.429 72.7405L116.246 73.0537L115.48 73.3321C114.297 73.9586 113.218 74.6199 112.173 75.3856C111.06 76.2557 110.155 77.1606 109.424 78.2047C108.971 78.7268 108.658 79.3881 108.658 79.3881C108.589 79.6317 108.484 79.9101 108.449 80.1886C108.38 80.4322 108.345 80.6758 108.345 80.989C108.345 81.4415 108.484 81.894 108.728 82.3116C109.041 82.7293 109.389 83.0077 109.702 83.1817C110.05 83.3557 110.433 83.3905 110.886 83.3905C111.617 83.3905 112.313 83.2861 112.974 82.9729C113.635 82.7292 114.297 82.3464 114.993 81.8591C116.002 81.1283 116.976 80.293 117.951 79.3881C118.16 79.214 118.369 79.0052 118.543 78.8312C118.577 78.8312 118.647 78.866 118.717 78.9356C118.682 79.1096 118.612 79.2488 118.577 79.3881C118.508 79.6317 118.473 79.8753 118.438 80.0493C118.403 80.3626 118.369 80.815 118.369 81.3719L118.334 81.8243V82.2072C118.334 82.9033 118.473 83.4601 118.786 83.7386C118.995 83.9126 119.239 83.9822 119.587 83.9474C120.074 83.7386 120.318 83.4253 120.318 82.9033L120.387 82.242L120.561 81.5807C120.666 80.8498 120.77 80.0841 120.909 79.3533C121.153 77.9263 121.501 76.5341 121.884 75.2116C122.336 73.7846 122.754 72.5317 123.172 71.4875L123.868 69.6429L124.668 67.7983V67.137L124.599 66.963ZM119.204 75.3508L119.065 75.8729C118.577 76.8126 117.986 77.6479 117.255 78.3439C116.837 78.7268 116.141 79.2488 115.654 79.6317C115.375 79.8405 115.062 80.0493 114.784 80.2234L113.392 81.0238C112.904 81.2675 112.452 81.4763 112.069 81.5459C111.686 81.6155 111.373 81.6851 111.164 81.6851C110.921 81.6851 110.747 81.6503 110.712 81.5459C110.677 81.4415 110.677 81.3371 110.677 81.1631C110.677 81.0587 110.712 80.8498 110.816 80.5714C110.921 80.293 110.99 80.1537 110.99 80.0841C111.06 79.9449 111.199 79.7013 111.199 79.7013C111.338 79.4577 111.617 79.0052 111.791 78.8312L112.87 77.7175C113.914 76.7429 115.097 75.9773 116.42 75.3856L117.673 75.0028C117.951 74.9331 118.229 74.8635 118.473 74.8635L119.065 74.8983C119.134 75.0724 119.239 75.2116 119.204 75.3508Z" fill="black"/>
<path d="M122.963 82.068C123.554 82.068 124.042 82.5552 124.042 83.1469C124.042 83.7386 123.554 84.2258 122.963 84.2258C122.371 84.2258 121.884 83.7386 121.884 83.1469C121.884 82.5552 122.406 82.068 122.963 82.068ZM122.963 84.0866C123.485 84.0866 123.868 83.669 123.868 83.1469C123.868 82.6248 123.45 82.2072 122.963 82.2072C122.441 82.2072 122.023 82.6596 122.023 83.1469C122.023 83.6342 122.441 84.0866 122.963 84.0866ZM122.824 83.1469H122.754V83.7734H122.545V82.4856H123.032C123.241 82.4856 123.415 82.6248 123.415 82.7989C123.415 83.0425 123.172 83.1817 123.032 83.1817L123.52 83.8082H123.311L122.824 83.1469ZM122.858 83.0773C123.067 83.0773 123.241 83.0077 123.241 82.7989C123.241 82.6596 123.137 82.59 122.963 82.59H122.754V83.0773H122.858Z" fill="black"/>
</svg>
