<svg width="250" height="37" viewBox="0 0 250 37" fill="none" xmlns="http://www.w3.org/2000/svg">
<path d="M249 1H1V36H249V1Z" stroke="#222222" stroke-width="2"/>
<g filter="url(#filter0_d)">
<path d="M136.484 18.724C137.068 18.724 137.572 18.652 137.996 18.508C138.42 18.356 138.768 18.152 139.04 17.896C139.312 17.632 139.512 17.324 139.64 16.972C139.768 16.62 139.832 16.236 139.832 15.82C139.832 14.996 139.556 14.356 139.004 13.9C138.46 13.444 137.628 13.216 136.508 13.216H134.636V18.724H136.484ZM144.92 27.892H141.668C141.06 27.892 140.62 27.66 140.348 27.196L137.036 21.856C136.9 21.648 136.748 21.496 136.58 21.4C136.42 21.304 136.18 21.256 135.86 21.256H134.636V27.892H131.036V10.48H136.508C137.724 10.48 138.764 10.608 139.628 10.864C140.492 11.112 141.2 11.46 141.752 11.908C142.304 12.356 142.708 12.892 142.964 13.516C143.22 14.132 143.348 14.812 143.348 15.556C143.348 16.132 143.264 16.68 143.096 17.2C142.936 17.712 142.7 18.18 142.388 18.604C142.076 19.028 141.692 19.404 141.236 19.732C140.78 20.06 140.26 20.324 139.676 20.524C139.908 20.652 140.124 20.808 140.324 20.992C140.524 21.168 140.704 21.38 140.864 21.628L144.92 27.892ZM160.393 20.248C160.393 19.904 160.345 19.576 160.249 19.264C160.161 18.952 160.017 18.676 159.817 18.436C159.617 18.196 159.365 18.008 159.061 17.872C158.757 17.728 158.393 17.656 157.969 17.656C157.177 17.656 156.557 17.88 156.109 18.328C155.661 18.776 155.369 19.416 155.233 20.248H160.393ZM155.185 22.216C155.289 23.376 155.617 24.224 156.169 24.76C156.729 25.296 157.457 25.564 158.353 25.564C158.809 25.564 159.201 25.512 159.529 25.408C159.865 25.296 160.157 25.176 160.405 25.048C160.661 24.912 160.889 24.792 161.089 24.688C161.297 24.576 161.501 24.52 161.701 24.52C161.957 24.52 162.157 24.616 162.301 24.808L163.261 26.008C162.909 26.416 162.521 26.756 162.097 27.028C161.673 27.292 161.233 27.504 160.777 27.664C160.321 27.816 159.861 27.92 159.397 27.976C158.933 28.04 158.485 28.072 158.053 28.072C157.189 28.072 156.381 27.932 155.629 27.652C154.885 27.364 154.233 26.944 153.673 26.392C153.121 25.832 152.685 25.14 152.365 24.316C152.045 23.492 151.885 22.536 151.885 21.448C151.885 20.608 152.021 19.816 152.293 19.072C152.573 18.328 152.973 17.68 153.493 17.128C154.013 16.576 154.645 16.14 155.389 15.82C156.133 15.492 156.973 15.328 157.909 15.328C158.701 15.328 159.429 15.456 160.093 15.712C160.765 15.96 161.341 16.324 161.821 16.804C162.309 17.284 162.685 17.876 162.949 18.58C163.221 19.276 163.357 20.072 163.357 20.968C163.357 21.216 163.345 21.42 163.321 21.58C163.297 21.74 163.257 21.868 163.201 21.964C163.145 22.06 163.069 22.128 162.973 22.168C162.877 22.2 162.753 22.216 162.601 22.216H155.185ZM180.304 18.064C180.216 18.2 180.124 18.3 180.028 18.364C179.94 18.42 179.816 18.448 179.656 18.448C179.496 18.448 179.332 18.408 179.164 18.328C178.996 18.248 178.808 18.164 178.6 18.076C178.392 17.98 178.152 17.892 177.88 17.812C177.616 17.732 177.308 17.692 176.956 17.692C176.42 17.692 176.004 17.804 175.708 18.028C175.412 18.244 175.264 18.532 175.264 18.892C175.264 19.14 175.348 19.348 175.516 19.516C175.684 19.684 175.904 19.832 176.176 19.96C176.456 20.08 176.772 20.196 177.124 20.308C177.476 20.412 177.836 20.528 178.204 20.656C178.58 20.784 178.944 20.932 179.296 21.1C179.648 21.268 179.96 21.48 180.232 21.736C180.512 21.984 180.736 22.288 180.904 22.648C181.072 23 181.156 23.428 181.156 23.932C181.156 24.532 181.044 25.088 180.82 25.6C180.604 26.104 180.284 26.54 179.86 26.908C179.436 27.276 178.908 27.564 178.276 27.772C177.644 27.98 176.916 28.084 176.092 28.084C175.668 28.084 175.248 28.044 174.832 27.964C174.416 27.892 174.02 27.788 173.644 27.652C173.268 27.508 172.916 27.344 172.588 27.16C172.26 26.976 171.976 26.776 171.736 26.56L172.504 25.324C172.592 25.18 172.7 25.068 172.828 24.988C172.964 24.908 173.136 24.868 173.344 24.868C173.544 24.868 173.728 24.92 173.896 25.024C174.064 25.12 174.252 25.228 174.46 25.348C174.668 25.46 174.912 25.568 175.192 25.672C175.48 25.768 175.836 25.816 176.26 25.816C176.58 25.816 176.856 25.78 177.088 25.708C177.32 25.636 177.508 25.54 177.652 25.42C177.796 25.292 177.9 25.152 177.964 25C178.036 24.84 178.072 24.676 178.072 24.508C178.072 24.236 177.984 24.016 177.808 23.848C177.64 23.672 177.416 23.52 177.136 23.392C176.864 23.264 176.548 23.148 176.188 23.044C175.828 22.94 175.46 22.824 175.084 22.696C174.716 22.568 174.352 22.416 173.992 22.24C173.64 22.064 173.324 21.844 173.044 21.58C172.772 21.308 172.548 20.976 172.372 20.584C172.204 20.192 172.12 19.716 172.12 19.156C172.12 18.644 172.22 18.16 172.42 17.704C172.62 17.24 172.92 16.832 173.32 16.48C173.72 16.128 174.216 15.848 174.808 15.64C175.408 15.432 176.1 15.328 176.884 15.328C177.764 15.328 178.564 15.472 179.284 15.76C180.004 16.048 180.596 16.424 181.06 16.888L180.304 18.064ZM196.01 15.328C196.938 15.328 197.782 15.476 198.542 15.772C199.302 16.068 199.954 16.492 200.498 17.044C201.042 17.588 201.462 18.252 201.758 19.036C202.054 19.82 202.202 20.704 202.202 21.688C202.202 22.672 202.054 23.56 201.758 24.352C201.462 25.136 201.042 25.804 200.498 26.356C199.954 26.908 199.302 27.332 198.542 27.628C197.782 27.924 196.938 28.072 196.01 28.072C195.074 28.072 194.222 27.924 193.454 27.628C192.694 27.332 192.042 26.908 191.498 26.356C190.954 25.804 190.53 25.136 190.226 24.352C189.93 23.56 189.782 22.672 189.782 21.688C189.782 20.704 189.93 19.82 190.226 19.036C190.53 18.252 190.954 17.588 191.498 17.044C192.042 16.492 192.694 16.068 193.454 15.772C194.222 15.476 195.074 15.328 196.01 15.328ZM196.01 25.588C196.954 25.588 197.654 25.264 198.11 24.616C198.566 23.96 198.794 22.988 198.794 21.7C198.794 20.42 198.566 19.456 198.11 18.808C197.654 18.152 196.954 17.824 196.01 17.824C195.042 17.824 194.33 18.152 193.874 18.808C193.418 19.456 193.19 20.42 193.19 21.7C193.19 22.988 193.418 23.96 193.874 24.616C194.33 25.264 195.042 25.588 196.01 25.588ZM214.589 17.56C214.981 16.856 215.433 16.3 215.945 15.892C216.457 15.484 217.057 15.28 217.745 15.28C218.305 15.28 218.761 15.412 219.113 15.676L218.897 18.124C218.857 18.284 218.793 18.396 218.705 18.46C218.625 18.516 218.513 18.544 218.369 18.544C218.241 18.544 218.057 18.528 217.817 18.496C217.577 18.456 217.353 18.436 217.145 18.436C216.841 18.436 216.569 18.48 216.329 18.568C216.097 18.656 215.889 18.78 215.705 18.94C215.521 19.1 215.353 19.296 215.201 19.528C215.057 19.76 214.921 20.024 214.793 20.32V27.892H211.481V15.52H213.437C213.773 15.52 214.005 15.58 214.133 15.7C214.261 15.82 214.353 16.028 214.409 16.324L214.589 17.56ZM232 28.084C231.44 28.084 230.944 28.004 230.512 27.844C230.08 27.676 229.716 27.44 229.42 27.136C229.124 26.832 228.9 26.464 228.748 26.032C228.596 25.6 228.52 25.112 228.52 24.568V17.896H227.356C227.18 17.896 227.028 17.84 226.9 17.728C226.78 17.616 226.72 17.448 226.72 17.224V15.928L228.7 15.568L229.372 12.364C229.46 12.004 229.704 11.824 230.104 11.824H231.832V15.592H235.024V17.896H231.832V24.352C231.832 24.696 231.912 24.968 232.072 25.168C232.24 25.368 232.476 25.468 232.78 25.468C232.94 25.468 233.076 25.452 233.188 25.42C233.3 25.38 233.396 25.34 233.476 25.3C233.556 25.252 233.628 25.212 233.692 25.18C233.764 25.14 233.836 25.12 233.908 25.12C234.004 25.12 234.084 25.144 234.148 25.192C234.212 25.232 234.276 25.304 234.34 25.408L235.336 26.992C234.88 27.352 234.364 27.624 233.788 27.808C233.212 27.992 232.616 28.084 232 28.084Z" fill="#AF9A7D"/>
</g>
<g filter="url(#filter1_d)">
<path d="M18.2344 11.8516C18.7656 11.9141 19.2109 11.9609 19.5703 11.9922C19.9453 12.0078 20.25 12.0312 20.4844 12.0625C20.7656 12.0938 20.9844 12.1094 21.1406 12.1094C21.3125 12.125 21.5703 12.1172 21.9141 12.0859C22.2109 12.0547 22.6094 12.0156 23.1094 11.9688C23.625 11.9219 24.2812 11.8516 25.0781 11.7578C24.7188 12.0703 24.4297 12.375 24.2109 12.6719C24.0078 12.9531 23.8516 13.2031 23.7422 13.4219C23.6016 13.6875 23.5156 13.9375 23.4844 14.1719C23.4219 14.5469 23.3672 15.0625 23.3203 15.7188C23.2891 16.3594 23.2578 17.0625 23.2266 17.8281C23.1953 18.5938 23.1797 19.3828 23.1797 20.1953C23.1797 21.0078 23.1875 21.7812 23.2031 22.5156C23.2344 23.2344 23.2812 23.875 23.3438 24.4375C23.4219 25 23.5156 25.4062 23.625 25.6562C23.7812 25.9375 23.9453 26.2188 24.1172 26.5C24.2734 26.7344 24.4609 26.9766 24.6797 27.2266C24.8984 27.4766 25.1484 27.6797 25.4297 27.8359C24.5078 27.7891 23.7734 27.7656 23.2266 27.7656H22.3828C22.1328 27.7656 21.8125 27.7812 21.4219 27.8125C21.0938 27.8438 20.6797 27.875 20.1797 27.9062C19.6797 27.9375 19.0781 27.9844 18.375 28.0469C18.7344 27.6562 19.0156 27.2812 19.2188 26.9219C19.4219 26.5625 19.5859 26.25 19.7109 25.9844C19.8516 25.6719 19.9453 25.375 19.9922 25.0938C20.0547 24.6875 20.1016 24.1875 20.1328 23.5938C20.1797 22.9844 20.2109 22.3359 20.2266 21.6484C20.2422 20.9453 20.2422 20.2344 20.2266 19.5156C20.2266 18.7812 20.2109 18.0781 20.1797 17.4062C20.1484 16.7344 20.1016 16.125 20.0391 15.5781C19.9922 15.0312 19.9297 14.5938 19.8516 14.2656C19.8047 14.0625 19.7109 13.8359 19.5703 13.5859C19.4453 13.3672 19.2734 13.1172 19.0547 12.8359C18.8516 12.5391 18.5781 12.2109 18.2344 11.8516ZM41.1544 14.6172C41.0138 14.9609 40.8888 15.2734 40.7794 15.5547C40.6856 15.8359 40.5997 16.0859 40.5216 16.3047C40.4434 16.5547 40.3731 16.7734 40.3106 16.9609C40.2481 17.1797 40.1778 17.4297 40.0997 17.7109C40.0216 17.9609 39.92 18.2734 39.795 18.6484C39.6856 19.0078 39.5528 19.4375 39.3966 19.9375C39.2716 19.1875 39.045 18.5938 38.7169 18.1562C38.3888 17.7031 38.0528 17.3516 37.7091 17.1016C37.3028 16.8203 36.8653 16.6172 36.3966 16.4922C35.5528 16.3516 34.9434 16.3672 34.5684 16.5391C34.1934 16.7109 33.9434 16.9297 33.8184 17.1953C33.7559 17.3047 33.6856 17.4453 33.6075 17.6172C33.545 17.7734 33.4903 17.9375 33.4434 18.1094C33.4122 18.2812 33.4044 18.4531 33.42 18.625C33.4356 18.7969 33.5059 18.9375 33.6309 19.0469C33.7091 19.125 33.9122 19.2344 34.2403 19.375C34.5684 19.5 34.9591 19.6484 35.4122 19.8203C35.8809 19.9766 36.3731 20.1484 36.8888 20.3359C37.42 20.5234 37.92 20.7109 38.3888 20.8984C38.8575 21.0859 39.2638 21.2734 39.6075 21.4609C39.9513 21.6484 40.1778 21.8203 40.2872 21.9766C40.3809 22.1328 40.4825 22.3438 40.5919 22.6094C40.7169 22.8594 40.8028 23.1406 40.8497 23.4531C40.9122 23.75 40.9278 24.0625 40.8966 24.3906C40.8809 24.7031 40.795 25.0156 40.6388 25.3281C40.4825 25.6406 40.2325 25.9297 39.8888 26.1953C39.5606 26.4609 39.1153 26.6797 38.5528 26.8516C37.8966 27.0547 37.2638 27.1094 36.6544 27.0156C36.045 26.9219 35.4825 26.7812 34.9669 26.5938C34.4669 26.4062 34.0294 26.2266 33.6544 26.0547C33.2794 25.8672 33.0138 25.7891 32.8575 25.8203C32.6856 25.8516 32.4903 25.9375 32.2716 26.0781C32.0528 26.2188 31.8419 26.3672 31.6388 26.5234C31.4513 26.6641 31.2872 26.7969 31.1466 26.9219C31.0059 27.0312 30.9356 27.0703 30.9356 27.0391C30.9356 27.0078 30.9591 26.9141 31.0059 26.7578C31.0684 26.6016 31.1309 26.4141 31.1934 26.1953C31.2716 25.9609 31.3419 25.7109 31.4044 25.4453C31.4825 25.1641 31.5372 24.8984 31.5684 24.6484C31.5997 24.4453 31.6388 24.1953 31.6856 23.8984C31.7169 23.6328 31.7559 23.3125 31.8028 22.9375C31.8653 22.5469 31.9356 22.0781 32.0138 21.5312C32.0919 21.9375 32.2013 22.2891 32.3419 22.5859C32.4981 22.8828 32.6466 23.1406 32.7872 23.3594C32.9591 23.6094 33.1231 23.8203 33.2794 23.9922C33.5138 24.2109 33.7872 24.4141 34.0997 24.6016C34.4278 24.7891 34.7559 24.9531 35.0841 25.0938C35.4122 25.2188 35.7247 25.2969 36.0216 25.3281C36.3184 25.3594 36.5684 25.3281 36.7716 25.2344C36.9747 25.1406 37.1466 24.9688 37.2872 24.7188C37.4434 24.4688 37.5528 24.1953 37.6153 23.8984C37.6778 23.6016 37.7013 23.3203 37.6856 23.0547C37.67 22.7734 37.5997 22.5469 37.4747 22.375C37.3809 22.2656 37.1622 22.125 36.8184 21.9531C36.4903 21.7812 36.0919 21.5938 35.6231 21.3906C35.17 21.1875 34.6856 20.9766 34.17 20.7578C33.67 20.5391 33.1934 20.3203 32.7403 20.1016C32.3028 19.8672 31.9356 19.6484 31.6388 19.4453C31.3575 19.2266 31.2013 19.0312 31.17 18.8594C31.1388 18.6094 31.1153 18.3359 31.0997 18.0391C31.0841 17.7266 31.0997 17.4219 31.1466 17.125C31.2091 16.8125 31.3184 16.5156 31.4747 16.2344C31.6466 15.9531 31.8966 15.7188 32.2247 15.5312C32.4434 15.4062 32.7325 15.3125 33.0919 15.25C33.4513 15.1875 33.8497 15.1562 34.2872 15.1562C34.7247 15.1406 35.1778 15.1562 35.6466 15.2031C36.1153 15.2344 36.5606 15.2812 36.9825 15.3438C37.42 15.3906 37.8106 15.4531 38.1544 15.5312C38.5138 15.6094 38.7872 15.6797 38.9747 15.7422C39.1934 15.8203 39.4278 15.8281 39.6778 15.7656C39.8966 15.7188 40.1309 15.6172 40.3809 15.4609C40.6309 15.3047 40.8888 15.0234 41.1544 14.6172ZM47.4572 28.6562C47.6134 28.4219 47.7384 28.2031 47.8322 28C47.9259 27.7969 48.0041 27.625 48.0666 27.4844C48.1291 27.3125 48.1759 27.1562 48.2072 27.0156C48.2228 26.9219 48.2306 26.6484 48.2306 26.1953C48.2306 25.7422 48.215 25.1719 48.1838 24.4844C48.1681 23.7969 48.1447 23.0234 48.1134 22.1641C48.0978 21.3047 48.0666 20.4297 48.0197 19.5391C47.9884 18.6484 47.9494 17.7812 47.9025 16.9375C47.8713 16.0938 47.84 15.3359 47.8088 14.6641C47.7775 13.9766 47.7463 13.4141 47.715 12.9766C47.6838 12.5391 47.6603 12.2891 47.6447 12.2266C47.6134 12.1328 47.5588 12.0391 47.4806 11.9453C47.3244 11.7578 47.0588 11.5781 46.6838 11.4062C47.4806 11.2031 48.09 11.0391 48.5119 10.9141C48.7619 10.8516 48.9806 10.7891 49.1681 10.7266C49.34 10.6641 49.5119 10.6016 49.6838 10.5391C49.8244 10.4766 49.9806 10.4062 50.1525 10.3281C50.3244 10.2344 50.4806 10.1328 50.6213 10.0234C50.5431 10.4766 50.4806 10.9141 50.4338 11.3359C50.3869 11.7578 50.3478 12.1484 50.3166 12.5078C50.2853 12.9141 50.2697 13.3047 50.2697 13.6797C50.1916 14.4453 50.1447 15.2812 50.1291 16.1875C50.1291 17.0781 50.1369 17.9844 50.1525 18.9062C50.1681 19.8281 50.1994 20.7266 50.2463 21.6016C50.2931 22.4766 50.34 23.2734 50.3869 23.9922C50.4494 24.6953 50.5041 25.2969 50.5509 25.7969C50.6134 26.2812 50.6603 26.5938 50.6916 26.7344C50.7541 26.9688 50.8166 27.1953 50.8791 27.4141C50.9416 27.6016 51.0119 27.7969 51.09 28C51.1681 28.2188 51.2619 28.3906 51.3713 28.5156H49.0978C48.8947 28.5156 48.6994 28.5234 48.5119 28.5391C48.34 28.5547 48.1603 28.5703 47.9728 28.5859C47.7853 28.6016 47.6134 28.625 47.4572 28.6562ZM58.8928 18.5078C58.9709 18.4141 59.0178 18.2422 59.0334 17.9922C59.0647 17.7266 59.1272 17.4297 59.2209 17.1016C59.3303 16.7734 59.51 16.4297 59.76 16.0703C60.01 15.7109 60.4163 15.375 60.9788 15.0625C61.5256 14.75 62.0569 14.5625 62.5725 14.5C63.0881 14.4375 63.5803 14.4609 64.0491 14.5703C64.5178 14.6797 64.9553 14.8516 65.3616 15.0859C65.7834 15.3203 66.1663 15.5781 66.51 15.8594C66.7444 16.0469 66.9319 16.3203 67.0725 16.6797C67.2131 17.0234 67.3225 17.4141 67.4006 17.8516C67.4788 18.2891 67.5334 18.75 67.5647 19.2344C67.6116 19.7031 67.6428 20.1641 67.6584 20.6172C67.6741 21.0547 67.6819 21.4609 67.6819 21.8359C67.6975 22.1953 67.7288 22.4922 67.7756 22.7266C67.8381 23.0703 67.9475 23.3672 68.1038 23.6172C68.26 23.8516 68.4319 24.0547 68.6194 24.2266C68.8069 24.3828 68.9944 24.5078 69.1819 24.6016C69.3694 24.6953 69.5334 24.7656 69.6741 24.8125C69.7678 24.8594 69.8538 24.8906 69.9319 24.9062C70.0881 24.9688 70.1975 24.9688 70.26 24.9062C70.1663 25.125 70.0803 25.3125 70.0022 25.4688C69.9241 25.625 69.8616 25.7578 69.8147 25.8672C69.7522 25.9922 69.6975 26.0938 69.6506 26.1719C69.6038 26.2656 69.5491 26.3516 69.4866 26.4297C69.4397 26.5078 69.3772 26.5938 69.2991 26.6875C69.2209 26.7812 69.1428 26.8828 69.0647 26.9922C68.8616 26.9141 68.6663 26.8203 68.4788 26.7109C68.3069 26.6016 68.1506 26.5 68.01 26.4062C67.8381 26.2969 67.6819 26.1875 67.5413 26.0781C67.4006 25.9688 67.2678 25.8438 67.1428 25.7031C67.0334 25.5781 66.9163 25.4453 66.7913 25.3047C66.6819 25.1641 66.5881 25.0078 66.51 24.8359C66.4163 25.0391 66.1897 25.3281 65.8303 25.7031C65.4866 26.0781 65.0334 26.4219 64.4709 26.7344C63.9084 27.0312 63.2522 27.2422 62.5022 27.3672C61.7678 27.4922 60.9553 27.4062 60.0647 27.1094C59.6741 26.9844 59.3069 26.8047 58.9631 26.5703C58.6194 26.3203 58.3225 26.0234 58.0725 25.6797C57.8381 25.3359 57.6663 24.9453 57.5569 24.5078C57.4631 24.0547 57.4709 23.5547 57.5803 23.0078C57.6897 22.4609 57.885 22 58.1663 21.625C58.4475 21.25 58.7834 20.9453 59.1741 20.7109C59.5647 20.4766 60.0022 20.2969 60.4866 20.1719C60.9709 20.0469 61.4709 19.9609 61.9866 19.9141C62.3928 19.8984 62.7991 19.9219 63.2053 19.9844C63.5491 20.0469 63.9084 20.1641 64.2834 20.3359C64.6584 20.4922 64.9788 20.7344 65.2444 21.0625C65.2288 20.2344 65.1975 19.5781 65.1506 19.0938C65.1194 18.5938 65.0881 18.2109 65.0569 17.9453C64.9944 17.6328 64.9397 17.4141 64.8928 17.2891C64.8147 17.1797 64.7288 17.0547 64.635 16.9141C64.5569 16.7734 64.4553 16.6484 64.3303 16.5391C64.2053 16.4141 64.0491 16.3125 63.8616 16.2344C63.6741 16.1562 63.4553 16.125 63.2053 16.1406C62.9397 16.1562 62.7288 16.2266 62.5725 16.3516C62.4163 16.4766 62.2913 16.625 62.1975 16.7969C62.1194 16.9531 62.0725 17.125 62.0569 17.3125C62.0413 17.5 62.0491 17.6641 62.0803 17.8047C62.1116 17.8984 62.1584 18 62.2209 18.1094C62.2834 18.2031 62.3694 18.3047 62.4788 18.4141C62.5881 18.5234 62.7366 18.6172 62.9241 18.6953C62.5647 18.7422 62.2444 18.7812 61.9631 18.8125C61.6819 18.8281 61.4397 18.8516 61.2366 18.8828C61.0022 18.9141 60.7991 18.9375 60.6272 18.9531C60.4553 18.9688 60.2522 19 60.0178 19.0469C59.8147 19.0781 59.5647 19.1172 59.2678 19.1641C58.9709 19.2109 58.6272 19.2734 58.2366 19.3516C58.3303 19.2422 58.4163 19.1406 58.4944 19.0469C58.5725 18.9375 58.6428 18.8438 58.7053 18.7656C58.7678 18.6719 58.8303 18.5859 58.8928 18.5078ZM62.4084 21.2969C62.1272 21.3125 61.8459 21.3828 61.5647 21.5078C61.2834 21.6172 61.0334 21.7812 60.8147 22C60.5959 22.2031 60.4084 22.4453 60.2522 22.7266C60.1116 22.9922 60.0413 23.2891 60.0413 23.6172C60.0413 23.9453 60.1194 24.2344 60.2756 24.4844C60.4475 24.7188 60.6663 24.9141 60.9319 25.0703C61.2131 25.2266 61.51 25.3203 61.8225 25.3516C62.1506 25.3828 62.4709 25.3516 62.7834 25.2578C63.0803 25.1484 63.3616 24.9766 63.6272 24.7422C63.8928 24.4922 64.1194 24.2266 64.3069 23.9453C64.4944 23.6484 64.6272 23.3594 64.7053 23.0781C64.7834 22.7812 64.7913 22.5391 64.7288 22.3516C64.6038 21.9453 64.3225 21.6641 63.885 21.5078C63.4475 21.3359 62.9553 21.2656 62.4084 21.2969ZM75.6722 25.4219C75.7816 24.9062 75.8597 24.4531 75.9066 24.0625C75.9691 23.6562 76.0159 23.3203 76.0472 23.0547C76.0784 22.7422 76.0941 22.4766 76.0941 22.2578C76.0784 21.9922 76.0628 21.6797 76.0472 21.3203C76.0472 20.9453 76.0316 20.5781 76.0003 20.2188C75.9847 19.8438 75.9613 19.5156 75.93 19.2344C75.8988 18.9375 75.8597 18.7266 75.8128 18.6016C75.7503 18.4766 75.6644 18.3438 75.555 18.2031C75.3363 17.9375 75.0159 17.6797 74.5941 17.4297C74.9534 17.3516 75.2581 17.2891 75.5081 17.2422C75.7738 17.1797 75.9925 17.125 76.1644 17.0781C76.3519 17.0156 76.5159 16.9609 76.6566 16.9141C76.7816 16.8672 76.93 16.8203 77.1019 16.7734C77.2425 16.7422 77.4144 16.7031 77.6175 16.6562C77.8206 16.6094 78.055 16.5547 78.3206 16.4922L78.2503 18.625C78.7503 18.0312 79.2581 17.5859 79.7738 17.2891C80.2894 16.9922 80.7738 16.7812 81.2269 16.6562C81.7425 16.5 82.2503 16.4219 82.7503 16.4219C83.3753 16.4531 83.9534 16.5547 84.4847 16.7266C85.0316 16.8984 85.5003 17.1016 85.8909 17.3359C86.2972 17.5547 86.6253 17.7891 86.8753 18.0391C87.1253 18.2891 87.2738 18.5078 87.3206 18.6953C87.5081 19.3047 87.555 19.8672 87.4613 20.3828C87.3675 20.8828 87.2425 21.375 87.0863 21.8594C86.9456 22.3281 86.8206 22.7969 86.7113 23.2656C86.6175 23.7344 86.6566 24.2422 86.8284 24.7891C86.8909 24.9297 86.9534 25.0703 87.0159 25.2109C87.0784 25.3359 87.1566 25.4609 87.2503 25.5859C87.3441 25.7109 87.4534 25.8125 87.5784 25.8906C87.4066 25.875 87.2347 25.8672 87.0628 25.8672C86.8909 25.8516 86.7347 25.8359 86.5941 25.8203C86.4222 25.8047 86.2659 25.7891 86.1253 25.7734C85.9691 25.7578 85.7581 25.75 85.4925 25.75C85.0394 25.75 84.3363 25.7734 83.3831 25.8203C83.5238 25.4922 83.6331 25.2188 83.7113 25C83.805 24.7656 83.8831 24.5781 83.9456 24.4375C84.0081 24.2656 84.055 24.1328 84.0863 24.0391C84.2738 23.5859 84.3831 23.0703 84.4144 22.4922C84.4613 21.9141 84.4222 21.3281 84.2972 20.7344C84.2503 20.5312 84.1722 20.2891 84.0628 20.0078C83.9534 19.7266 83.805 19.4531 83.6175 19.1875C83.4456 18.9219 83.2347 18.6953 82.9847 18.5078C82.7503 18.3203 82.4769 18.2109 82.1644 18.1797C81.8519 18.1484 81.5003 18.2266 81.1097 18.4141C80.7347 18.6016 80.3284 18.9453 79.8909 19.4453C79.5628 19.8672 79.305 20.3828 79.1175 20.9922C78.9456 21.5078 78.8284 22.1562 78.7659 22.9375C78.7034 23.7031 78.7972 24.6016 79.0472 25.6328C78.8284 25.6016 78.6253 25.5859 78.4378 25.5859C78.2503 25.5703 78.0941 25.5547 77.9691 25.5391C77.8128 25.5234 77.6722 25.5078 77.5472 25.4922C77.4066 25.4922 77.2503 25.4844 77.0784 25.4688C76.9222 25.4688 76.7269 25.4688 76.4925 25.4688C76.2581 25.4531 75.9847 25.4375 75.6722 25.4219ZM105.436 10.0469C105.733 10.0625 106.053 10.0703 106.397 10.0703C106.694 10.0703 107.03 10.0781 107.405 10.0938C107.795 10.0938 108.202 10.0781 108.623 10.0469C108.248 10.2188 107.92 10.4688 107.639 10.7969C107.358 11.125 107.131 11.4531 106.959 11.7812C106.741 12.1719 106.561 12.5781 106.42 13C106.342 13.25 106.28 13.6953 106.233 14.3359C106.186 14.9609 106.147 15.6953 106.116 16.5391C106.1 17.3828 106.092 18.2734 106.092 19.2109C106.092 20.1484 106.1 21.0469 106.116 21.9062C106.131 22.75 106.155 23.5 106.186 24.1562C106.217 24.8125 106.256 25.2734 106.303 25.5391C106.366 25.8516 106.444 26.1484 106.537 26.4297C106.616 26.6797 106.717 26.9375 106.842 27.2031C106.967 27.4531 107.123 27.6562 107.311 27.8125L104.92 28.8906C104.795 28.7188 104.694 28.5391 104.616 28.3516C104.537 28.1797 104.475 28.0234 104.428 27.8828C104.366 27.7109 104.327 27.5547 104.311 27.4141C104.28 27.2266 104.248 27.0234 104.217 26.8047C104.186 26.5703 104.147 26.3516 104.1 26.1484C104.069 25.9297 104.045 25.75 104.03 25.6094C104.014 25.4688 104.014 25.3828 104.03 25.3516C104.045 25.3203 103.952 25.4609 103.748 25.7734C103.545 26.0703 103.241 26.4219 102.834 26.8281C102.444 27.2188 101.959 27.6016 101.381 27.9766C100.803 28.3359 100.155 28.5625 99.4359 28.6562C98.7016 28.75 98.0219 28.6094 97.3969 28.2344C96.7875 27.8594 96.2641 27.3359 95.8266 26.6641C95.3891 25.9766 95.0531 25.1875 94.8187 24.2969C94.6 23.3906 94.5141 22.4688 94.5609 21.5312C94.5922 20.9062 94.7328 20.3516 94.9828 19.8672C95.2328 19.3672 95.5453 18.9375 95.9203 18.5781C96.3109 18.2031 96.7328 17.8906 97.1859 17.6406C97.6547 17.375 98.1078 17.1562 98.5453 16.9844C98.9984 16.8125 99.4203 16.6875 99.8109 16.6094C100.202 16.5312 100.514 16.4766 100.748 16.4453C101.03 16.4297 101.35 16.4766 101.709 16.5859C102.022 16.6797 102.381 16.8359 102.787 17.0547C103.209 17.2734 103.678 17.6016 104.194 18.0391C104.1 16.4766 104.014 15.2266 103.936 14.2891C103.858 13.3359 103.78 12.6094 103.702 12.1094C103.623 11.5156 103.553 11.1094 103.491 10.8906C103.412 10.7344 103.311 10.5781 103.186 10.4219C103.077 10.2969 102.936 10.1719 102.764 10.0469C102.608 9.90625 102.42 9.79688 102.202 9.71875C102.608 9.79688 102.998 9.85156 103.373 9.88281C103.748 9.91406 104.092 9.94531 104.405 9.97656C104.764 10.0078 105.108 10.0312 105.436 10.0469ZM99.5531 18.7891C99.2562 18.8984 99.0141 19.0859 98.8266 19.3516C98.6547 19.6172 98.5141 19.9375 98.4047 20.3125C98.2953 20.6719 98.2172 21.0625 98.1703 21.4844C98.1391 21.8906 98.1156 22.2891 98.1 22.6797C98.1 23.0547 98.1 23.3984 98.1 23.7109C98.1 24.0234 98.1 24.2578 98.1 24.4141C98.1 24.5078 98.1156 24.6797 98.1469 24.9297C98.1937 25.1641 98.2875 25.4141 98.4281 25.6797C98.5687 25.9297 98.7641 26.1562 99.0141 26.3594C99.2797 26.5625 99.6312 26.6641 100.069 26.6641C100.428 26.6328 100.811 26.5078 101.217 26.2891C101.577 26.1016 101.983 25.8047 102.436 25.3984C102.905 24.9766 103.405 24.375 103.936 23.5938C103.905 23.0938 103.881 22.6797 103.866 22.3516C103.866 22.0234 103.858 21.7578 103.842 21.5547C103.827 21.3203 103.819 21.1328 103.819 20.9922V20.6406C103.819 20.5469 103.819 20.4453 103.819 20.3359C103.819 20.2266 103.827 20.125 103.842 20.0312C103.405 19.7188 103.014 19.4531 102.67 19.2344C102.342 19 102.014 18.8281 101.686 18.7188C101.373 18.5938 101.045 18.5391 100.702 18.5547C100.373 18.5547 99.9906 18.6328 99.5531 18.7891Z" fill="#222222"/>
</g>
<defs>
<filter id="filter0_d" x="127.036" y="10.48" width="112.3" height="25.604" filterUnits="userSpaceOnUse" color-interpolation-filters="sRGB">
<feFlood flood-opacity="0" result="BackgroundImageFix"/>
<feColorMatrix in="SourceAlpha" type="matrix" values="0 0 0 0 0 0 0 0 0 0 0 0 0 0 0 0 0 0 127 0"/>
<feOffset dy="4"/>
<feGaussianBlur stdDeviation="2"/>
<feColorMatrix type="matrix" values="0 0 0 0 0 0 0 0 0 0 0 0 0 0 0 0 0 0 0.25 0"/>
<feBlend mode="normal" in2="BackgroundImageFix" result="effect1_dropShadow"/>
<feBlend mode="normal" in="SourceGraphic" in2="effect1_dropShadow" result="shape"/>
</filter>
<filter id="filter1_d" x="14.2344" y="9.71875" width="98.3891" height="27.1719" filterUnits="userSpaceOnUse" color-interpolation-filters="sRGB">
<feFlood flood-opacity="0" result="BackgroundImageFix"/>
<feColorMatrix in="SourceAlpha" type="matrix" values="0 0 0 0 0 0 0 0 0 0 0 0 0 0 0 0 0 0 127 0"/>
<feOffset dy="4"/>
<feGaussianBlur stdDeviation="2"/>
<feColorMatrix type="matrix" values="0 0 0 0 0 0 0 0 0 0 0 0 0 0 0 0 0 0 0.25 0"/>
<feBlend mode="normal" in2="BackgroundImageFix" result="effect1_dropShadow"/>
<feBlend mode="normal" in="SourceGraphic" in2="effect1_dropShadow" result="shape"/>
</filter>
</defs>
</svg>
